<?xml version="1.0" standalone="no"?>
<!DOCTYPE svg PUBLIC "-//W3C//DTD SVG 1.1//EN" "http://www.w3.org/Graphics/SVG/1.1/DTD/svg11.dtd" >
<svg>
<metadata>
Created by FontForge 20090914 at Fri Feb 24 04:10:21 2012
 By root
St Rachan Typeworks  1999
</metadata>
<defs>
<font id="Scribish" horiz-adv-x="709" >
  <font-face 
    font-family="Medieval Scribish"
    font-weight="400"
    font-stretch="normal"
    units-per-em="1000"
    panose-1="0 0 0 0 0 0 0 0 0 0"
    ascent="800"
    descent="-200"
    x-height="598"
    cap-height="683"
    bbox="-114 -342.5 1019.88 758.8"
    underline-thickness="50"
    underline-position="-75"
    unicode-range="U+0020-U+007A"
  />
<missing-glyph horiz-adv-x="500" 
 />
    <glyph glyph-name=".notdef" horiz-adv-x="500" 
 />
    <glyph glyph-name="space" unicode=" " horiz-adv-x="303" 
 />
    <glyph glyph-name="numbersign" unicode="#" horiz-adv-x="869" 
d="M23 -201v191l19 -2l3 27t2.5 15.5t2.5 14l3 23.5h4q-2 -18 -3 -28t-1 -15v-7v-3l1.5 0.5t2.5 0.5q3 32 6.5 59t12.5 59q2 0 3.5 -0.5t5.5 -0.5l12.5 23l7 12.5t3.5 6.5l2 4h4q-1 -3 -4 -10t-7 -15.5t-7 -17.5t-4 -16q10 4 27 38l16 30t14 21h4q-4 -7 -4 -12
q15 11 21.5 18.5t14.5 12.5q25 8 57 1.5t53 -27.5l2 -0.5t4 -0.5q-9 39 -42 39h-65q-54 -17 -78 -39q-21 -21 -51 -69q-12 -27 -26 -49.5t-16 -30.5v539l254 -1q-2 -15 -5 -29.5t5 -30.5q-8 1 -10 21q-1 0 -7 -3q-1 -7 -1.5 -12t-0.5 -10h-7l-1 1t-1 3q-19 -5 -36 -6t-32 -4
q-4 -6 0 -12t11.5 -11.5t16.5 -8.5t15 -3q-2 -2 0 0t5 9h-5v4h-8v4q19 0 32.5 3t23.5 11t18 21t16 33q-2 9 -9 19h-8v4q142 0 279 -0.5t281 -0.5v-793h-826zM789 -174h20l0.5 2t0.5 5q-19 4 -29 19q-9 -2 -10.5 -5.5t1.5 -7t8 -7zM55 -168q20 0 32 6q0 1 -1 3t-1 3
q-12 3 -16 -1q-5 0 -13.5 4t-13.5 4q0 -12 -1 -13q8 -2 11 -4zM178 -168q2 0 4 0.5t3 0.5q-1 8 -2.5 15.5t-1.5 16.5l16 12.5t10.5 8.5t9 7.5l12.5 9.5q11 2 21.5 5t19.5 6q7 6 14 14.5l14.5 17t16 14t19.5 5.5v-4q-26 -6 -26 -24q12 -8 19.5 -12.5t15 -7t17 -4t25.5 -2.5
v14q0 1 2 11q-8 14 -8 18v19h4q0 -24 6 -33v-36q5 -3 31 -8q28 -5 39 -6l13.5 -12t13.5 -11t15 -7.5t19 -0.5q0 1 1.5 3t2.5 5q-4 1 -26 17l-30.5 13t-16.5 7q-6 3 -15 7l-22 10q3 12 4 24t1 24q8 -4 5.5 -19.5t-4.5 -24.5q28 4 31 23q1 15 16 28q-7 -18 -8 -27t7 -25h15
q1 1 -2 25q-4 0 -5 -1q1 1 0 -1l-3 -6h-4q4 22 21 28q-2 -9 -2.5 -19t0.5 -21q4 -2 9 -6t10 -9q2 0 4 1t3 1l-3 3t-4 6q9 -3 12 -8t10 -5q4 0 12 5q-12 64 -42 61q-12 -1 -30 4t-44 14q-35 -4 -66.5 -2t-65.5 2q-8 -4 -12.5 -6.5l-10 -5.5t-12.5 -8l-19 -13q-25 -10 -48 -14
t-46 -4q0 -6 1 -7q28 -8 51 -7t52 21q3 12 15 15q-3 -8 -12.5 -21.5t-13.5 -20.5q-20 -8 -24 -5q-5 3 -14 -14l-16 -15.5l-16 -15.5q0 -10 -1 -16t-1 -11q0 -4 3 -7.5t11 -8.5zM107 -167h11l8 2q2 3 -3 5q-3 0 -7 -0.5t-9 -1.5v-5zM200 -165q18 0 4 17q7 28 47 38
q40 9 63 31q0 4 -6 12h-7q-8 -10 -19.5 -16.5t-24.5 -12l-25.5 -10.5t-22.5 -11q-6 -11 -10.5 -17t-6.5 -10t0 -8t8 -13zM806 -164h4q9 48 -3.5 87t-33.5 77q-34 11 -64 18.5l-56 13.5q-12 0 -21.5 -2t-17.5 -2t-15 3t-13 12q-5 -1 -8.5 -1.5t-9.5 -0.5q0 7 2 12.5t5 11.5
q-15 7 -23 9q-3 4 -13.5 11t-27.5 20q-6 4 -12 11.5l-12 15l-11.5 14.5t-9.5 9q1 -33 35 -68q33 -36 61 -55q4 -14 -3 -39q37 3 91 3q28 2 51 -3t40 -13q5 -10 13 -22.5t15.5 -25.5t13 -26t5.5 -24q-8 -3 -7 -3q0 -8 3.5 -11t4.5 -12h-4q2 -10 21 -20zM103 -160q12 4 12 12
q-22 18 -24 32q22 54 38 64q8 5 26 14.5t48 22.5q6 6 13.5 11t13 10.5t7 12.5t-4.5 16q-5 0 -7 2q-27 -22 -55 -36t-56 -30l-21 -29t-14 -24.5t-7 -27t-1 -34.5q4 -3 8.5 -4t9.5 -2v-4q5 -2 8 -3t6 -3zM51 -144q1 3 10 3q0 76 38 102q19 15 44.5 30t57.5 32q17 17 36 43
t25 50h5q-12 -30 -18 -41.5t-8 -19.5q8 1 12.5 2t10.5 2.5l14.5 3.5t25.5 5v-4q-14 -3 -22.5 -4.5l-14.5 -2.5t-11.5 -2.5t-14.5 -4.5q-2 -10 8 -22h6q5 0 11.5 2t24.5 8q38 -5 75 -13.5t79 -8.5q1 17 -3 38t-7 39q-14 0 -21 -4v5q6 3 27 3q1 -4 2 -14.5t3 -25.5l6 -26
t3 -11q2 0 4.5 1t6.5 2q0 4 -0.5 8t-2 10.5t-4.5 17.5t-7 30v8q0 5 2 14.5t8 35.5q-5 -1 -8.5 -5t-8.5 -4q0 4 6 12l13 17l26 35h4v4q-13 0 -20 3v4l1.5 0.5t2.5 0.5q-4 15 -8 14t-7 -19t-4 -28t-1 -12h-4q1 3 2 7.5t2 9.5q-3 0 -4 1q-9 -20 -14 -33t7 -30v-10q-2 2 -5 2
q-1 4 -2 6.5t-1 4.5q-12 -5 -14 -12t-10 -10q4 12 11 26.5l17 34.5q22 37 16 67q-4 0 -7.5 2t-6.5 3q0 4 -1 6t-1 5q-10 8 -15.5 11t-7.5 4v4q-7 2 -12 7q-12 17 -30 14.5t-33 -10.5q-3 -3 -3 -8q5 0 12.5 0.5t14 0t11 -4t4.5 -11.5q-11 -15 -16 -23t-3.5 -14t10 -11
l24.5 -14q27 0 27 10q1 10 21 21q-11 -21 -18.5 -28.5t-31.5 -9.5q10 -19 10 -29q-1 1 -7 1q-1 5 -2.5 8.5t-1.5 7.5q-1 0 -3 1l-2 1q0 -20 0.5 -25t1.5 -9q13 0 14 -1q19 28 24 36l7.5 12.5t10.5 18.5h5q-9 -20 -22 -38.5l-24 -35.5q3 -13 6 -16h-7q-5 7 -6.5 11t-3.5 5
q-5 0 -8 3q0 -8 2 -14.5t4 -14.5h-4q-5 11 -18 11q0 1 0.5 2.5t0.5 2.5q9 3 11 3q0 15 1.5 32.5t2.5 34.5q-7 4 -10 5.5l-3 1.5q11 -47 -38 -56v-7q3 -1 6 -2.5t7 -1.5q0 -5 2 -7q-3 0 -4.5 -0.5l-1.5 -0.5q0 2 2 4q-6 1 -10 3t-9 5q0 -5 1 -10t1 -9h-7q-4 8 -6 15t-5 15
q-8 47 -40.5 62.5t-76.5 15.5q-24 -17 -39 -33t-27 -41q-4 -23 -6 -43t-3 -41q0 -37 -42 -64q-16 -29 -27.5 -66t-15.5 -69q3 0 5 -2q-1 3 -0.5 0.5t3.5 -10.5q4 0 6 -3zM675 -140q8 0 10 2t0.5 5t-4 6.5t-2.5 6.5v36q-3 0 -5 0.5l-2 0.5q-2 -5 -8 -7q-1 -15 0 -24.5
t4 -22.5q-1 1 1 0zM521 -127q17 3 17 11q-13 6 -19 8.5l-13.5 5.5t-20 9t-36.5 19q-14 0 -14 -9q2 -1 6 -2.5t13 -3.5q23 -12 35.5 -19.5l19 -11.5t8.5 -5.5t4 -1.5zM690 -127q21 5 34 40q8 18 12 30t6 20q-8 3 -9 6t-9 3q-8 -13 -16 -21.5t-17 -12.5q0 -3 -0.5 -4.5
t-0.5 -4.5q4 -1 6 -3t7 -2q-3 -6 -4 -7t-16 -1q0 -8 -0.5 -21.5t7.5 -21.5zM508 -62q-6 3 -7 3q-1 1 -1 11h13q0 -4 3 -4h-8q-1 -2 -2 -3l-1 -1q3 -3 8 -3v-4q-1 0 -3 0.5zM532 6q56 0 16 31l-29 25t-18 18q-5 9 -9 15t-6 10h-7q4 -36 6 -45q1 -5 3.5 -13.5t5.5 -22.5
l19 -9.5t19 -8.5zM486 8q21 0 23 2q-14 6 -20 18l-10.5 50t-9.5 50q-6 0 -7 3l-2 -22.5t-1 -23.5q2 -5 3.5 -14.5t4.5 -23.5q9 -28 -9 -31v-5l13.5 -2t14.5 -1zM757 12h5q9 20 10.5 39.5t1.5 41.5q-5 3 -9.5 9t-11.5 14q-12 0 -27.5 -0.5t-30.5 -3t-28 -6t-21 -9.5
q0 -31 33 -31q52 12 56 8q4 -3 4 -55l6 -3t12 -4zM598 34q8 0 21 7v4q5 0 12 4q-7 7 -9 13h-7q-7 -8 -25 -15q1 -2 3 -5t5 -8zM623 37q5 0 11.5 0.5t14.5 1.5q-6 24 -39 54l-30 25.5l-22 19.5q15 -19 34 -39.5t42 -41.5q0 -5 1 -7t1 -5q-7 -4 -13 -4v-4zM653 42q29 0 42 16
q-11 2 -24.5 3.5t-30.5 4.5q12 -15 13 -24zM580 49q23 2 34 23q-11 -3 -12 -12q-5 0 -9.5 -0.5t-12.5 -1.5v-9zM69 58q4 3 6 10.5t3 17.5t1.5 19t0.5 15h-4q-3 -11 -5 -26.5t-2 -35.5zM586 62q17 0 17 18q-30 28 -55 58.5l-48 59.5h-6q-7 -8 -12.5 -15.5t-10.5 -15.5
q0 -22 48 -58q23 -18 40.5 -30t26.5 -17zM636 73h6q0 9 0.5 15.5l1 12.5t1 13.5t0.5 20.5q-8 35 -19 42q-10 6 -40 12q5 -12 14 -25.5t17 -28.5l7 -30.5l7 -31.5h5zM410 79q-14 8 -23.5 12.5t-15 10t-7.5 14t0 23.5h-7v4q4 1 6 4t6 4q-1 -1 -1 -9q-3 1 0 0.5t11 -3.5v-5h-5
v4q2 1 0 0l-6 -3q-4 -8 -3 -12.5t4.5 -8.5t9 -8t10.5 -9h18v-13l8 -2t8 -1v-4q-10 2 -13 2zM615 92h4q5 27 -17 52l-19 27.5t-15 19.5q-11 3 -17 5t-12.5 3.5t-15 3t-22.5 3.5q4 -18 49 -60l39 -33zM332 150q8 0 16 4.5t14 12t9 16t1 17.5q-29 3 -36 13q-5 12 -8.5 16.5
t-8 6t-11 1t-17.5 1.5l4 -8t7 -9q2 -4 3.5 -13t6.5 -23q7 -28 20 -35zM135 175q1 4 3 7.5t4 8.5q-4 -7 -5.5 -10.5l-1.5 -3.5q5 2 12 13q-8 -11 -12 -15zM619 186q9 0 10 1q-2 5 -3 8.5t-3 6.5l-58.5 10.5t-59.5 12.5q4 6 2.5 13t-5 14t-7.5 14t-6 13q0 8 -5 23h-5
q-5 -20 2.5 -32t16.5 -29h-4q-4 8 -7 12t-5 7q-1 -1 2 -22h-5q-1 5 -3 11t-2 14h-8l-5.5 -11t-1.5 -11q20 -15 27 -28q-1 1 19 1q20 -5 33.5 -8t21.5 -5q8 -1 22.5 -5zM360 206h6q-13 19 -4 30q10 10 15 28q-9 0 -19.5 1.5t-19.5 2.5q-1 3 -1.5 5.5t-0.5 5.5q-3 0 -5 0.5
t-3 0.5q-4 -8 -5.5 -16t-2.5 -16h2v8h6q1 -12 8 -28.5t24 -21.5zM603 214h15v1q0 4 -2.5 12.5t-8.5 32.5q-5 1 -8 2t-8.5 2t-14.5 3t-26 5q-24 8 -25 8q0 -3 -0.5 -5t-0.5 -3h-4q-1 4 -2 9t-1 10h-5q1 -20 2 -35t2 -26q20 -4 43 -7.5t44 -8.5zM443 256h16q4 10 3 21
q-14 11 -31 13q-1 -1 -1 -4q-1 -1 -12 1v-5h-4q-2 2 -2 4q-3 0 -4.5 0.5l-1.5 0.5q5 -5 14 -13t23 -18zM505 263l1.5 0.5t2.5 0.5q-1 7 -2.5 16t-2.5 21l-4.5 1.5l-1.5 0.5q2 -8 3 -17.5t4 -22.5zM606 265q49 0 83.5 17t74.5 47q-2 2 -2 5q-7 0 -8 -1q-33 -26 -60 -39
t-67 -18q-19 1 -38.5 4t-37 9t-32.5 16.5t-25 27.5q-3 0 -4.5 0.5t-3.5 0.5q4 -32 48 -48q42 -15 72 -21zM494 282q0 5 -1.5 15.5t-6.5 26.5h-7q3 -11 3 -17l1.5 -0.5l4.5 -1.5q1 -5 2 -11.5t4 -11.5zM581 286h21l2 10.5t5 10.5q4 7 10.5 15.5l13.5 17t12.5 16t7.5 13.5
q-12 4 -19.5 14.5t-10.5 24t-2.5 27t4.5 23.5l1 0.5t3 2.5v5q-5 -1 -8 -2.5t-7 -1.5q-15 -26 -15 -71q0 -43 -31 -53q2 22 2.5 35t-1 13.5t-4 -13t-6.5 -44.5q-8 -21 -12 -34l20.5 -5t13.5 -4zM345 290q10 0 24 15q8 -2 11 -2q0 6 -1 7q-6 4 -10 3.5t-7.5 -3t-7 -5.5
t-9.5 -3v5q2 2 5 3.5t8 4.5q-2 24 -3 37.5t-1 19.5v18q0 6 0.5 13.5t1.5 15.5h4v-49q0 -16 8 -46q14 -7 16 -13l15.5 9.5t15.5 10.5q12 17 21 36.5l18 39.5h4q-10 -27 -20.5 -47t-21.5 -36v-7q6 -6 10 -6q0 -3 -1 -4.5t-1 -4.5q-13 2 -17 8q-2 8 -20 -1v-6q22 0 27 -9
q26 -8 32 27l6.5 30l4.5 20t4 19.5t5 28.5h4q-8 -59 -9 -69q-2 -10 -2 -11v-10q2 0 3.5 -1t4.5 -1q2 2 9.5 11t23.5 26q31 34 31 43q-20 13 -30 -3l-10 -14t-13 -13q1 -1 1 -10q-1 1 -4 1q-1 6 10 25q2 7 2.5 16t-1.5 17.5t-6.5 14.5t-12.5 6v-16h-18q-5 -9 -19.5 -14
t-22.5 -6v5q6 2 10 4l6 3q-9 6 -17 9.5t-13 5.5q-2 7 -2.5 10t0 5t2.5 4t6 8q-37 1 -43 -3q-4 -3 -12 -10t-22 -21l-32 -22t-32 -16q0 -7 1.5 -11t10.5 -21q-3 0 -4.5 1l-1.5 1q-28 49 -61 74q-2 0 -29 -10q5 -21 22 -44.5t29 -43.5q29 -8 66 -8q24 -18 39 11l-10 -2t-11 -3
v5q1 1 9 1q-1 1 -1 8q3 0 6 1t9 2q2 14 5.5 31t9.5 38h4q-2 -14 -7 -31t-8.5 -35t-4.5 -35t5 -31q8 0 9 -1zM389 293h11q7 0 8 1q-4 1 -9.5 2t-29.5 2q-1 -1 -1 -4q1 -1 8 -1h13zM614 299q7 0 21 1t34 3q41 6 47 30q-5 -2 -10 -5t-11 -7q-33 -9 -80 -12q0 -3 -0.5 -5
t-0.5 -5zM534 302h6q13 25 17.5 46.5t9.5 50.5q-3 0 -4 -1l-1 -1q-2 -6 -4.5 -17.5t-3.5 -28.5h-4q1 20 5.5 39t11.5 37q-13 -8 -18.5 -19t-6.5 -24t1 -26l4 -25h-3q-1 3 -1.5 5t-0.5 4h-4q-2 -10 -2 -25h-4q2 27 3 42.5t3 20.5q1 5 1.5 11t2.5 12h-6q-5 -15 -6.5 -31.5
t-0.5 -34.5h-4v50q-2 0 -4 -2q-8 -17 -2.5 -38.5t9.5 -41.5q1 0 2.5 -1t3.5 -2zM762 309h17q0 4 2 6q-23 17 -31 -6h12zM520 310l0.5 0.5t2.5 0.5q-3 9 -4.5 14.5t-2.5 11t-1.5 13l-1.5 21.5q-2 -2 -6 -4q0 -6 1.5 -15t3.5 -18t4 -16t4 -8zM789 317q10 0 15 4t6 10.5t0.5 15
t-0.5 16.5l-17.5 22.5l-24.5 30.5q-11 23 -23 33q0 5 -1 11.5t-1 13.5l-6 3t0 0q-3 -9 -3 -12q-5 -2 -27 10q0 -3 8 -14q-1 1 -4.5 2.5t-10.5 5.5v-12h-4v-6h-5v3q-4 -3 -12 -6t-19 -9q4 -25 40 -47q18 -10 32 -20l25 -18q6 -23 32 -37zM728 327q9 0 15 6l-0.5 1t-0.5 3
q-7 0 -8 4q-12 18 -30.5 31l-35.5 25q-17 21 -31 60q-8 -25 5.5 -47t26.5 -39l18.5 -10t13.5 -8t12 -10t15 -16zM397 330q3 5 5.5 11t7.5 13l-17 -12t-12 -8q5 11 13 15.5t12 15.5q-9 0 -11 2q-14 21 -18 28h-4l6 -22t8 -19q-5 1 -8 2t-5 1l-12 49q-1 1 -1 10v12h4v-5h7v-4
h-7v-7q2 2 8 2q5 -8 9 -17t9 -18q9 -18 33 0q9 12 15 19t8 9q-2 -3 -7.5 -14t-15.5 -28q-17 -33 -27 -35zM504 333l0.5 0.5t2.5 0.5q-3 7 -3 16q-3 0 -4 -1q0 -9 4 -16zM788 337q-1 0 1 14h8q-2 -14 -9 -14zM745 341q1 1 4 1v11q-10 0 -12 -2q1 -1 1 -6q1 -4 7 -4zM271 346
v4q15 6 33.5 22.5t27.5 31.5h6l-14 -24.5t-16 -33.5h-4q0 4 2 8t3 7q-12 -3 -19.5 -7.5t-18.5 -7.5zM576 350q1 1 3 2.5t5 2.5q8 24 10.5 49.5t9.5 49.5q-11 -4 -14.5 -12t-4 -18t1 -21t1.5 -20h-4q0 15 -0.5 24t-0.5 14t0.5 8.5t2.5 9.5q-21 -6 -13 -38q3 -16 4 -28t-1 -23
zM728 357h9v6q-14 4 -19 10q-3 -2 -3 -6q4 -3 7 -5.5t6 -4.5zM660 368l2 0.5t5 0.5q-4 6 -17 16q-18 30 -20 72q-23 -51 30 -89zM708 372q3 1 3 5q-26 22 -40.5 38.5t-22.5 46.5h-7q13 -52 67 -90zM372 395v5h2q0 -1 -0.5 1t-1.5 10h-4q0 -9 4 -16zM395 399q-6 17 0 29
q3 0 5 -0.5t7 -0.5v-4q-3 -1 -4.5 -2t-2.5 -1q0 -5 -0.5 -10.5t-0.5 -10.5h-4zM724 401q-4 0 -12 5q-1 4 -2 7.5t-2 5.5q8 1 17.5 2t20.5 -1q0 -19 -22 -19zM719 408q19 0 19 8q-17 3 -23 0q0 -3 1.5 -4.5t2.5 -3.5zM532 412h8q-2 14 -16 14q-1 -1 -1 -7q3 -3 5 -4t4 -3z
M544 420q22 16 29 37q-2 0 -13 17q-8 0 -14 3v-4q12 0 10 -12t-14 -16q1 3 2 6.5t3 6.5q-8 0 -15 -4l-2 -13.5t-1 -9.5q4 -2 7.5 -4.5t7.5 -6.5zM728 427q-1 1 -13 1h-19v6h9q7 0 13.5 -0.5t26.5 -2.5v-3q-16 0 -17 -1zM170 430q8 2 13.5 4t13.5 7v6q-7 7 -27 -8v-9z
M429 431q19 0 32 16q-2 8 -7 12t-11 11q15 -9 27.5 -14t23.5 -3q0 3 1 5t2 7q-3 0 -5 0.5l-2 0.5v4q1 1 10 1q8 23 4 27q1 3 5 3q-1 1 -4 1v3q2 0 3.5 1t4.5 1q-1 -2 0 0l3 6q-21 -4 -21.5 -10t-0.5 -22q-8 -3 -19 -3q0 1 1 2.5t1 4.5q-2 0 15 -3q0 10 -0.5 16t1 9.5t6 5.5
t14.5 4q1 2 3 7t4 14q-21 0 -37.5 -1t-27.5 -3q-12 -18 -18 -38h-6q-2 -5 -3 -6.5t1 -0.5h-5q-1 -3 -2 -8.5t-4 -14.5q-5 -1 -8 -3t-7 -2q-6 -17 -6 -14q22 -12 32 -16zM656 445q38 9 52 48q-1 -1 -9 -1q-9 -14 -19.5 -23.5t-23.5 -17.5v-6zM162 447q27 0 26 12q-3 13 9 26
v7q-5 1 -9.5 2t-9.5 4q-1 3 -2.5 5.5t-1.5 5.5h-5v-15q0 -11 1 -12q-4 -8 -9.5 -17t1.5 -18zM122 451q4 2 7.5 3t5.5 3q0 13 -4 20q-7 0 -8 1q-2 -5 -11 -12q0 -3 1 -5.5t1 -5.5q1 -1 3 -2.5t5 -1.5zM653 457q19 7 22 16q-2 1 -3.5 2t-3.5 2q-8 11 -12 17.5t-8.5 9.5
t-11.5 4t-21 1q3 -31 37 -43q0 -3 0.5 -5.5t0.5 -3.5zM573 462q1 1 -7 27h-6q-2 -11 13 -27zM520 463q14 0 20 1t7 2q-4 0 -5 3v12q8 0 9 1q1 2 2 4.5t2 6.5q8 1 15 1h12q11 0 16 17q-11 2 -22 3t-21 -1q-12 -32 -50 -40v-7q4 0 15 -3zM577 466q0 -1 6 7q-3 9 -3 17h-7
q0 -7 1.5 -13t2.5 -11zM139 469h4l-2 6t-1 7h-4q0 -4 1 -7zM147 470q0 1 3 1q4 4 -7 29q-2 -12 4 -30zM724 471q2 0 3 1t4 1l3 6q-20 14 -26 -1q8 -1 16 -7zM677 475q3 3 3 6q-14 11 -16 11q5 -8 8.5 -12t4.5 -5zM154 477q6 0 7 1l0.5 2t0.5 5h4l-2.5 13t-5.5 17h-4
q3 -6 5 -11.5t3 -13.5h-4q-2 10 -7 17q-1 -1 -1 -5q0 -10 4 -25zM586 477q1 2 1.5 6t2.5 10h-6q0 -4 1 -8t1 -8zM645 478q-19 6 -22 22q17 -8 29 -23q-6 0 -7 1zM407 482q1 0 3 1t5 1q1 7 3.5 5.5t7.5 6.5q-1 1 -6 1q-11 -7 -13 -15zM681 485q1 1 7 1q3 8 2 17.5t-9 24.5
q-18 -2 -16 -31q4 -2 8 -5t8 -7zM397 490q5 0 11.5 6l11.5 11l-1 1q-3 0 -22 -10v-8zM462 500q-4 0 -4 4q4 0 12 -2v5q-4 0 -6 0.5t-5 1.5v4q5 -1 8 -1.5t7 -0.5q0 -10 1 -11h-13zM424 508q10 0 11 -1q0 1 1 3t1 5q-7 -4 -14 -4q0 -2 0.5 -2.5zM449 509q3 12 25 12l2 -2
t2 -4q-8 3 -12.5 2.5t-7 -2.5t-4.5 -4t-5 -2zM166 512q4 5 5.5 8l1.5 3q-11 -3 -12 -6zM393 511q10 1 24.5 3t19.5 13q-10 -1 -20 -4t-24 -6v-6zM591 516q9 0 2 3t-34 8v-8q16 -3 32 -3zM595 524q3 0 4.5 1t4.5 1q4 10 3 21h-44q-1 -4 -2 -7t-1 -6q6 -2 15 -4.5zM411 528
q26 8 54.5 11t57.5 3q0 -6 2 -8q2 0 4.5 0.5t5.5 0.5q0 4 0.5 6.5t0.5 6.5q-15 5 -29 11t-28 13q-28 13 -55 -16v-6q1 1 15 1l-0.5 -1t-1.5 -4q-3 -2 -11.5 -4t-22.5 -7v-5q1 0 3 -1t5 -1zM577 534q0 7 -1 8q9 0 14.5 -1t8.5 -2v-4h-12q-9 0 -10 -1z" />
    <glyph glyph-name="dollar" unicode="$" horiz-adv-x="832" 
d="M19 -195h36h14q9 0 13 1q1 7 2.5 11.5t3.5 9t4 10t4 16.5q10 9 12 30q2 10 4.5 39.5t10.5 77.5q7 0 9 -2q11 -18 13.5 -31t-1.5 -20q-5 -8 -21 -54q9 3 15 9l10 29t5 21q3 15 -15 52q-12 14 -23 28.5t-19 28.5q-22 9 -22 26q-22 9 -19.5 22.5t22.5 21.5q5 10 9 17l7 12
q21 0 29 -32q29 -6 18 -32v-23q0 -9 -20 -6q0 -2 5.5 -9.5l15.5 -21.5q11 -11 19 -17.5t13 -8.5q-8 12 -13.5 18.5l-13.5 16.5q5 22 9.5 45.5t9.5 46.5q-1 18 -6 61l-9 25t-3 25q12 5 23 3q8 -12 10.5 -18t4.5 -7q2 2 4.5 3t4.5 3q6 46 -11 86q-9 20 -15.5 41t-9.5 43
q14 -8 24 -38q11 -33 18 -43h4q-14 48 -39 85.5l-54 77.5h-18q-3 3 -3 10q-8 0 -12 1t-6 2q2 4 2 18q-15 3 -19 13.5t14 13.5q0 11 -3 17t-3 16q0 4 2 14q8 0 28 -10q11 0 17.5 1.5t18.5 -7.5q0 -5 1 -10.5t1 -9.5h13q12 -20 -6 -35q0 -21 -6 -22q0 -4 17 -30
q9 -12 26 -38.5l43 -68.5q6 -20 9 -31t4.5 -17.5l2.5 -10.5t3 -10q-12 0 -16 4q-36 -2 -9 -24h16q6 -6 3 -14q-17 -11 -22 -8q-5 2 -8 -18q5 0 8.5 -0.5t8.5 -0.5q0 -5 -1 -7.5t-1 -5.5l-14 -3.5t-11 -1.5q0 -15 3 -22q-4 0 24 5q-2 -19 -6.5 -44t-14.5 -57q2 2 4 2
q8 12 15.5 26.5l17.5 32.5q21 38 51 44q0 -5 -0.5 -8.5t-2 -8t-3 -12.5t-3.5 -22q-23 -29 -38 -55l-32 -57q3 1 6 6h6q0 -7 -2 -18.5t-4.5 -24t-5.5 -25l-5 -21.5h5q1 5 4 8l6 6q7 0 8 -1q4 -15 4 -31q-16 -20 -16 -33q1 0 3 -1t6 -1q1 -11 -6 -27q0 -11 4 -19.5t9 -16
l10.5 -15t8.5 -16.5l565 -2v800h-793v-798zM335 -191q-16 14 -32 22.5t-33 13.5v16q13 29 22.5 63.5t15.5 76.5q22 -1 39 -6q-3 -3 -5 -11q5 1 10.5 5t10.5 5q-6 -31 -24 -55q-7 -13 -10.5 -21t-6 -14.5t-4 -13.5t-4.5 -17q10 -10 22 -20.5t24 -18.5q29 -10 35 -11.5t8 -1.5
q-4 -9 -12 -12t-18 -3q-9 0 -20.5 1.5t-17.5 1.5zM621 -179q-5 1 -14.5 2t-21.5 5q-15 9 -21 11.5t-17 2.5h-15q-2 0 -2.5 1t-2 5t-3 12l-4.5 23q-14 21 -27.5 45t-30.5 41l-8.5 30t-8.5 22t-12 19.5t-19 22.5q3 55 9 84q28 -10 52 -68q13 -30 21 -50.5t14 -34.5l14.5 -46
t7.5 -24q4 -8 7 -15t8 -17q43 -35 96 -48q4 -5 9 -7q0 -15 -31 -16zM561 -66q-9 6 -7.5 19t1.5 22h-12q-3 9 -3 25q2 2 5 3t8 3v20q22 3 29 -1q1 7 5.5 18t9 24t6.5 25.5t-2 22.5h-9q-26 -21 -63 -15q-34 9 -34 47q15 20 39 2q5 0 8 0.5t8 0.5q11 -8 14 -23q3 0 5.5 -1
t6.5 -1q31 33 1 63q-14 17 -29 27.5t-29 17.5q-27 0 -48.5 1t-44.5 6q9 30 57 24l43.5 -6.5t29.5 -5.5q20 2 32.5 2.5t20.5 1.5q-5 -19 -24 -26q0 -5 8 -11.5t22 -23.5q7 -19 10 -39t5.5 -40.5t5.5 -41t9 -39.5q3 -4 5 -7.5t1 -8.5q-9 0 -15 5t-10.5 12t-7 15t-5.5 14h-4
q-3 -21 -4.5 -28t-1.5 -12v-6q4 -6 7.5 -8t5.5 -3.5t3.5 -5t1.5 -12.5q-2 0 -3.5 -1l-1.5 -1q4 -13 3.5 -20t-5 -9t-12 -1t-16.5 4q-1 -28 -25 -28zM450 -29q-4 1 -9 2t-12 2q0 14 1 25t2 25q1 -2 4.5 -9.5l7.5 -16t7 -16.5t3 -12h-4zM374 -22q-5 15 -3 13q12 2 18.5 4
t8.5 3q1 7 1.5 11t1 9t1.5 13.5t3 23.5h3v-46v-11q0 -10 -1 -13q-6 -2 -14 -4t-19 -3zM413 -16q0 14 1.5 29t2.5 32q1 -1 8 -1q0 -15 -0.5 -24t-1 -14.5t-1 -9.5t-0.5 -11q-4 0 -6 -0.5t-3 -0.5zM353 -5q17 42 31.5 84l31.5 90h-5l-11 -28t-14.5 -28.5t-20 -24t-26.5 -14.5
h-16q-10 11 -14.5 24.5t-6 28t-1 29t0.5 28.5q5 -26 11.5 -51.5t24.5 -48.5q5 0 6 -1l-4 10.5t-2 9.5q58 21 64 66q-17 -6 -28 -31q-12 -23 -41 -23q-16 22 -20 39.5t-8 43.5q23 4 57 4q16 0 32.5 -0.5t33.5 -1.5l2.5 -10l4.5 -18q6 -24 1 -26q-4 5 -6 9.5t-4 7.5h-4
l-11.5 -45.5t-6.5 -28.5q-2 -11 -5 -33.5t-9 -57.5q-8 -1 -12.5 -2t-8.5 -1q3 11 12 14v-5h5q0 5 -1 9.5t-1 9.5h-4q-13 -21 -27 -28zM339 6q-20 1 -31.5 2.5t-18 2.5t-9.5 2.5t-7 2.5q2 5 3 11.5t5 11.5q3 0 5.5 1t7.5 1v6q-14 0 -23.5 -4t-18.5 -4q0 12 8 21.5l16 19.5
q-1 -1 -2.5 -2l-1.5 -1v9q0 3 1 8.5t3 17.5t6.5 33l11.5 55h6q-5 -22 -6 -41t0 -37.5t3.5 -37.5l5.5 -40q-5 -8 -9 -12l-7 -7q18 6 22 10q0 32 -1 35h7q4 -12 7.5 -24t9.5 -26l1.5 1t2.5 2q2 9 -4 20.5t-9 21.5q15 2 24.5 5.5t16.5 9.5t13.5 15.5l15.5 22.5
q-2 -7 -2.5 -10.5t-3.5 -13t-11.5 -30l-25.5 -60.5q-9 0 -11 2zM693 29v16q1 3 9 3q4 -4 4 -13q-5 -6 -13 -6zM712 47q-8 3 -12.5 5t-6.5 3l-12 170.5t-14 163.5q-5 81 -8.5 131.5t-4.5 71.5h10q0 -3 1 -5t1 -4h10q0 -3 -9 -12q-5 -17 -2 -38t8 -39q5 -93 13 -183.5
t13 -183.5q1 -19 3 -30t4 -17.5t3.5 -10.5t1.5 -8q6 -11 6 -14h-5zM718 55q-1 6 -2 10.5t-1 10.5q15 32 24.5 65.5t17.5 68.5q0 26 -0.5 51t-0.5 51h9q0 -3 0.5 -4.5t0.5 -2.5q7 0 9 -2q0 -10 6 -20q2 0 4 -1t4 -1q0 -12 -1 -29t-2 -42q-5 -12 -10.5 -33l-13.5 -53
q-13 -64 -44 -69zM227 184q0 1 -1 3.5t-1 6.5q7 4 18 4h23q-4 -3 -13.5 -7t-25.5 -7zM197 197q0 3 -1 5t-1 6q3 -1 9 -1h9h21q13 1 45 1.5t86 4.5q-13 -8 -72 -10q-8 -1 -14.5 -1.5t-12.5 -0.5h-21h-27q-9 -4 -21 -4zM377 208q0 16 3 34q1 0 4 -1t8 -1q0 -29 -15 -32z
M398 211v28q7 0 15 -0.5t15 -2.5t12 -6.5t5 -13.5q-13 -6 -24 -5.5t-23 0.5zM225 213q0 6 2 8q12 -1 20.5 -2.5t16.5 -2.5q-27 -3 -39 -3zM269 217l-1 1.5t-1 2.5h17h13h10t10 -1q40 0 39 -1q-6 -2 -9 -2h-8h-13h-57zM242 226h-5v6q13 0 20.5 -1t12.5 -2q-9 -3 -28 -3z
M347 227q-14 0 -25 1l-22 2v5q33 -3 46 -4.5t16 -1.5h4q-2 -2 -19 -2zM207 232q4 8 4.5 11.5t-1.5 -0.5h8q4 0 9 -0.5t13.5 -1.5l22 -2.5t33.5 -2.5l-42 -3q-5 -1 -10 -1h-9h-13h-15zM363 239q-23 5 -26.5 7t-0.5 3q5 -1 14 -2.5t21 -4.5q-3 -3 -8 -3zM255 243q-4 2 -19 2
q0 8 1 9q25 0 36 -11h-18zM302 243q-7 2 -26 5q0 6 -1 7q27 -8 36 -10t-9 -2zM374 246q-21 9 -18 43q1 17 3 30.5t4 23.5h-4q-5 -23 -6 -45t4 -44q-18 -4 -22 24q-3 28 -3 38h-5v-29v-12q0 -4 2 -10q-12 -1 -29 8q-1 32 8.5 56t23.5 54h-5q-11 -14 -22 -11q1 1 1 11
q-36 9 -58.5 24.5t-19.5 53.5q32 12 64.5 17.5t66.5 6.5q-2 -10 -3 -17.5t-5 -12.5q-18 -5 -31.5 -10.5t-22.5 -8.5q-1 -1 -1 -3q9 -1 21 0t23.5 4t21.5 9t15 15v23q59 -1 104 -31l-4 -4q-8 3 -16 6.5t-19 5.5v-5q24 -6 33 -13q-1 -1 -6 -1q-10 0 -27 4q2 -5 4 -11t7 -12
q35 -3 40 -8q5 -3 12 -11l20 -22q0 -3 -1 -5t-1 -4q4 -1 7 -2t8 -2v-3l22.5 -15.5t16.5 -9.5q2 -2 2 -4q-17 -14 -20 -21h6v5q26 10 51 7t56 -6v-32q-27 -5 -52.5 -7.5t-52.5 -5.5q-12 0 -22.5 0.5t-23.5 1.5t-29 1.5t-39 0.5q1 6 5.5 17l12.5 30q9 21 13.5 30.5t5.5 13.5
h-4l-29 -65t-37 -61h-13q-6 10 -11 10q3 -9 2 -10h-11q2 2 2 10q31 28 50 56q-5 -17 -13 -25t-12 -22l2 -0.5t6 -0.5q13 25 23.5 50.5l20.5 51.5q-5 -2 -8.5 -8.5t-6.5 -15t-5 -16t-4 -11.5h-6l-13 -16l-17 -20.5l-17.5 -19.5t-14.5 -13zM297 258q-3 3 -3 6q2 -2 12 -5
q-1 -1 -9 -1zM243 259q-2 2 -4 2v9q10 -2 17 -3t13 -5q-2 -1 -8.5 -2t-17.5 -1zM276 264q-42 14 -64 11q-3 7 0 15q6 0 15 -3t19.5 -7l20.5 -8t18 -5q-2 -3 -9 -3zM374 270q11 5 19.5 13t16 17l15.5 18t19 16q0 8 1 9q-3 0 -4.5 0.5t-2.5 0.5q-11 -23 -34 -29
q-22 -7 -29 -25q2 0 7 2.5l11 5.5t11.5 6.5l8.5 5.5q-3 -6 -8.5 -11t-11.5 -9t-11 -9t-8 -11zM266 278l-18 6v7q11 0 22 -11q-2 0 -4 -2zM306 284h9l5 22q2 5 7.5 20.5l14.5 40.5q-1 -1 -6 -1l-19.5 -41t-10.5 -41zM783 287v9q3 0 5.5 1.5t7.5 2.5q-2 -9 -13 -13zM342 290
q-2 0 -2.5 1t1 6.5t5 17l10.5 33.5l1.5 1t2.5 2q0 -1 -0.5 -3.5l-0.5 -2.5l0.5 2.5t0.5 3.5q-1 0 -2.5 -0.5l-1.5 -0.5l-11 -30t-3 -30zM345 290q2 12 4.5 24.5t6.5 26.5q-4 -14 -6.5 -26.5t-4.5 -24.5zM708 294q0 8 -1 16t-1 16q13 8 20.5 11.5t11.5 3.5h39q0 -5 -1 -6.5
t-1 -5.5q-9 -2 -16.5 -5l-14.5 -6v-5h6q-2 -2 -2 -16l-18.5 -2t-21.5 -1zM693 297q-2 2 -2 28q1 1 8 1q0 -8 -1 -15.5t-1 -13.5h-4zM778 297q5 10 3 8q4 0 5.5 2t6.5 3q-2 -6 -15 -13zM777 308h-9v4l6.5 2.5t18.5 7.5v-9q-5 -1 -9 -2.5t-7 -2.5zM375 312l2.5 0.5t3.5 0.5
q0 14 -4.5 28t-5.5 28h4q0 -2 0.5 -4t3.5 -6t8 -12l14 -23h9q0 8 -2 10q4 4 11 9.5t13.5 11.5t11.5 13t6 14h-5q0 -2 -4.5 -8.5t-10.5 -13.5l-11.5 -13t-7.5 -7h-13q-11 16 -16 28t-5 17h-3v17h-5q-1 -24 0 -46.5t6 -43.5zM756 316l0.5 1.5t2.5 3.5q5 0 9.5 1.5t9.5 2.5l5 7
q2 2 10 2q-3 -10 -15.5 -14t-21.5 -4zM751 345q-3 5 -8.5 38t-18.5 78l-11 23.5l-7 14.5t-4.5 10.5t-2.5 10.5q-6 6 -13 11t-11.5 10.5t-6 12t3.5 15.5q5 0 12 -5.5t14 -13.5t13.5 -16.5t9.5 -13.5q8 -1 11.5 -1.5t5.5 -0.5l3 -15.5t7 -27.5q3 -11 5 -17.5l3.5 -11t3.5 -8
t5 -9.5q1 -23 7 -41.5t8 -40.5h-18q-5 0 -11 -2zM186 421q-5 9 -9 15.5t-7 9.5q0 59 63 104q22 7 27 21q21 0 31 -7q8 0 10.5 3t15.5 3q3 -3 6 -12q8 2 13 1t11 -2v-4l1.5 -1t2.5 -1q0 -5 -0.5 -9t-0.5 -8q-2 0 -3.5 -1t-2.5 -1q-5 -8 -15 -12q0 -13 -4 -18t-10.5 -5.5
t-14.5 1.5t-16 3q-4 -7 -18 -7q-8 8 -8 28q-19 -4 -31 -14t-19 -23.5t-10.5 -29.5t-5.5 -31q-1 -1 -3.5 -2zM456 430q-6 5 -8 13q21 -6 33 -4q3 15 3 20q-14 5 -21 8t-12.5 5l-10.5 4t-14 5q0 27 36 42q19 8 34.5 12t26.5 6q0 -5 3 -10.5t3 -10.5q-3 -3 -10.5 -5.5
t-8.5 -7.5q0 -13 0.5 -19.5t0.5 -15.5h-19v-6q13 0 27 8q-5 20 -5 32q7 6 18 6v-5q-3 0 -5 -0.5l-2 -0.5q0 -2 -1 -3.5l-1 -1.5q2 0 4 1t7 2q2 -6 -2 -10q-1 0 -3.5 1l-2.5 1v-5q2 0 4 -0.5t7 -0.5q-3 -18 -5 -27.5t-3 -15t-2 -8t-2 -6.5q-5 -2 -7 -2.5t-10 -0.5h-18h-34z
M505 443h6q0 -1 -3 10h8v3h-18v-6h7v-7zM363 459q0 5 1 12.5t1 15.5h9q-3 -15 -3 -28h-8zM396 488q-8 15 -5.5 31t12 29.5t24.5 22.5t32 9q14 -5 25.5 -8.5t20.5 -7.5q-32 -13 -58.5 -28t-41.5 -46q-3 0 -5 -1t-4 -1zM417 490q-4 0 -4 4q22 28 54 47.5t71 19.5q2 -5 2.5 -10
t0.5 -13q-2 -3 -12 -3q0 -1 -3 10q-20 0 -35 -4t-27 -11t-23 -17.5zM466 490q4 0 6.5 2t7.5 2q0 -1 0.5 -2.5l0.5 -1.5h6q0 -1 -3 10q-8 -1 -11.5 -2l-3.5 -1q-1 -5 -2 -7t-1 0zM487 500h5q0 1 0.5 3.5t0.5 3.5l-7 8q-20 0 -21 -9h19q3 -3 3 -6zM648 569q-9 0 -9 17h10
q-1 -2 -1 -17z" />
    <glyph glyph-name="percent" unicode="%" horiz-adv-x="844" 
d="M15 -198h163q3 1 10 1h8q8 0 10 2q8 8 14 22t14 18q9 20 27.5 34t34.5 31q9 -1 18.5 -4.5t20.5 -8.5q1 -11 -2 -22.5t-7 -23.5t-7.5 -24.5t-3.5 -24.5q127 0 251 0.5t254 0.5q0 12 0.5 22.5t2.5 24.5q-5 2 -14 15q-8 27 -15.5 55.5t-19.5 54.5q-28 22 -58 29t-59 19
q6 43 61 10q29 -14 46.5 -23.5t25.5 -14.5q-1 2 6.5 -25l23.5 -84l6 -1v714h-813l1 -670h4q2 19 15 42t21 42l10.5 2t13.5 5l19.5 25t25.5 37q9 23 11.5 47.5t11.5 47.5q17 17 36 33.5t29 37.5q-12 -5 -21.5 -12.5l-19 -15t-19 -12.5t-20.5 -5q0 17 16 29.5t30 25.5
q23 9 46 10t46.5 -2t48 -8.5t50.5 -9.5q26 0 52 1t49.5 2t41.5 2t29 1q5 -4 12.5 -8.5t16.5 -12.5q20 -16 31 3q-3 17 -4.5 34.5t-2.5 34.5q22 3 30 -8h5q0 13 -2.5 23.5t-3.5 23.5q-1 -1 -4 -3t-6 -5h-15q0 13 -0.5 22.5t0.5 17.5t4.5 16.5t10.5 19.5q-2 -1 -5.5 -5
l-9.5 -11q-19 -16 -40 -16q0 5 -2 7l12 15.5t10.5 11.5t12.5 9.5t18 10.5q36 72 95 48q9 0 19 1t20 1q1 -3 11 -14q-2 -2 -2 -6q-8 0 -16 1t-16 1v-6q4 -2 7 -2h9h22q12 -17 -6 -27q-14 1 -28 0.5t-29 -2.5l-0.5 -1t-1.5 -4h22q3 0 11 0.5t21 1.5q-7 -13 -13 -13
q2 -8 6.5 -11.5t4.5 -6.5q-9 0 -11 -2v4h-4v-11q-7 1 -10 16h-4q1 -14 2 -18t1 -1q-2 0 -4.5 -0.5t-3.5 -0.5q0 8 -1 13.5t-1 13.5h-9q-36 -24 -77 -29v-3h43q-6 -20 -7 -33t2 -24.5t9 -24.5t14 -33q2 -16 2.5 -29.5t1.5 -23.5q12 -39 14 -71.5t-19 -67.5l-32 -33h-7v19v15
q0 10 -1 15q-3 33 -17 39l5.5 -22t5.5 -18q0 -8 -1 -18.5t-2.5 -20.5t-2.5 -17.5t-1 -10.5l35 -13t33.5 -13t32 -16.5t30.5 -23.5l28.5 -59.5t28.5 -61.5q0 -13 -1 -15q-13 -1 -16 21h-4q0 -8 -0.5 -14t-0.5 -11q-11 1 -14 5.5t-2 10.5t3.5 12.5t2.5 12.5q-8 2 -11 3l-3 1
q-2 4 -3.5 12.5t-4.5 21.5q-4 8 -6 13l-4 10t-5 11t-9 17q-43 26 -84 37t-89 21q-1 6 7 24q11 17 -7 20q-29 32 -48.5 61t-38.5 65q-2 0 -3 -1t-3 -1q-5 -32 21 -47q25 -14 24 -42l-17.5 -17t-20.5 -18q-38 0 -73 5.5t-70 14.5q0 -5 0.5 -7.5t0.5 -6.5q-3 -3 -15 -3
q-37 23 -46 22q-10 0 -42 -23q-12 -29 -62 -49q-26 -10 -44.5 -18.5t-32.5 -13.5q-12 -9 -20 -16t-13 -14.5t-7 -17t-2 -23.5q17 -17 17 -35q-2 2 -4 2h-6q-10 22 -25 35q0 34 19 56t45 39q37 17 74.5 40.5t71.5 50.5q3 4 4.5 7t4 7.5t6 12.5l10.5 23l22.5 36.5t16.5 25.5
q-13 -8 -22.5 -21t-17 -27.5l-15 -30t-16.5 -28.5l-81 -52.5l-51 -32.5q-20 -11 -32.5 -18.5t-17.5 -11.5q-7 -9 -10.5 -14.5l-6.5 -10.5t-6 -11.5t-9 -16.5q0 -9 2 -17.5t2 -17.5q-4 -1 -7 -2t-7 -2v-78zM121 -179q-9 36 7 43q8 3 20.5 8.5t29.5 15.5q2 4 4 6.5t4.5 6.5
t6 11t9.5 20q18 21 19 26q-25 -14 -45 -30t-45 -29q-8 0 -19.5 -1t-29.5 -2v8l29 2.5t14 5.5l46.5 29l22.5 14l14.5 8t15.5 9q33 0 68.5 -3t70.5 2l21 10.5t22 13.5q10 0 21 1t22 1q2 -9 5.5 -15l6.5 -11.5t5 -11.5t2 -16q-5 -8 -7.5 -13.5t-4.5 -10.5q-2 -2 -5 -1t-7 2
q0 32 -9 52h-5q5 -15 4 -32t7 -27l46 -22t45 -27q7 -5 19 -9.5t17 -13.5q-6 -13 -31 -7q-13 13 -21 17.5t-21 15.5q-29 8 -45 12t-21 5q-3 2 -5.5 3t-4.5 3q-4 11 -7 18t-6.5 13t-8.5 11t-13 11q0 -8 3.5 -14.5t8 -13.5t8.5 -14.5t4 -16.5q-18 0 -34 3.5t-33 8.5
q-3 8 -12 14t-20 10t-22 6t-17 2q-22 -14 -41.5 -31t-41.5 -30q-22 -8 -35 -13.5t-18 -8.5q0 -8 1.5 -11t1.5 -7q-5 -5 -16 -6zM153 -178q-4 7 -4 21q38 14 65 31t56 48q8 0 13.5 -1l10.5 -2v-4q-26 -21 -48.5 -37t-49.5 -30q-22 -5 -26 -6.5t-7 -4.5q0 -15 -10 -15z
M29 -163q-11 6 -11 25q9 9 14.5 11t10.5 -1t10 -10t11 -17q-1 -1 -1 -7q-5 0 -7.5 1t-5.5 1q-5 12 -7 24q-2 0 -3.5 0.5l-1.5 0.5q1 -8 2 -15t3 -13h-14zM558 -123h-3q-2 5 -3 7t0 0q-6 0 -11 4q-9 14 -27 17.5t-35 3.5h-20q0 1 1 4t2 7q42 18 64 0q11 -8 26 -15.5t31 -14.5
q0 -13 -25 -13zM483 -55q-2 2 -4 9q14 1 13 6.5t-12 7.5q0 -2 1 0t2 7q36 0 15 -30h-15zM469 -28q-14 14 -17 35h7q0 -4 1 -6.5t1 -3.5h4q2 -12 10 -15q0 -3 -1 -5t-1 -5h-4zM292 -27q0 10 9 19l11 47q9 0 16.5 -1t15.5 12q32 0 43 -4v-6q3 -3 5 -3q0 -43 -33 -62
q-17 0 -33.5 -1t-33.5 -1zM480 -16q-2 1 -4 1.5t-6 2.5v6q5 2 9 4t8 3v25h-4q-1 -8 -2 -12.5t-1 -8.5q-8 4 -10.5 5t0.5 1q0 -7 -2 -13q-4 3 -4.5 7t-1.5 8q11 11 18 26q33 12 39 31h8q0 -22 -8 -40h-3v-4q5 1 10.5 1.5t13.5 2.5l-27 -32.5t-33 -13.5zM491 20h17q1 3 2 8
t2 12q-20 -2 -21 -20zM498 23q0 3 0.5 5.5t0.5 7.5q2 -2 7 -2q-3 -11 -2 -10q-5 0 -6 -1zM558 28q-8 4 -15.5 4.5t-15.5 1.5q5 13 10 22h6q8 -8 12.5 -13t8.5 -9q0 -4 -2 -6h-4zM404 254q-9 0 -18 0.5t-18 0.5q-3 47 -13 63q-5 10 -16.5 23t-30.5 29q-17 13 -36.5 24
t-40.5 2q-7 -7 7 -17v-11q-1 -4 -11 -6q0 -19 -1.5 -26.5t-20.5 -7.5q-11 8 -34 8q-5 5 -5 23q3 1 6 2.5t8 3.5q3 18 7.5 33.5t25.5 20.5q114 -6 167 -101h4q-33 71 -90 116q-9 0 -15.5 -3t-16.5 -3v13q-5 0 -8.5 -1t-8.5 -1q-11 14 -8 27l1 0.5t3 0.5q-3 10 -10 13.5
t-7 13.5h6q-10 13 -10 30q6 8 21 8q1 -2 3.5 -5l6.5 -8q5 0 17 3q0 -4 2.5 -5t3.5 -3q10 3 20 3q10 -13 11 -23q6 -2 12 -7v-20q-8 -11 -8 -14l26 -38.5t38 -52.5h5q-2 17 -6 29t-6 22.5t0 21.5t13 27q5 2 9.5 5t9.5 7q6 11 10 14t12 3h13q0 -5 1.5 -8.5t2.5 -8.5
q8 -2 16 -7.5t9 -13.5q-2 -10 -5 -14t-7.5 -5.5t-10.5 -1t-15 0.5q-5 -13 -3 -11q-18 -8 -27 23q-11 -5 -9.5 -15t1.5 -23q9 -30 13 -53l9 -53q6 2 12 14q17 9 21 9q5 0 2 -6t-10.5 -16l-14.5 -19.5t-9.5 -17.5t4.5 -10q-3 0 -5.5 -0.5t-3.5 -0.5zM704 275q0 9 -1 10
q2 0 9.5 2t16 4.5t16 4.5t9.5 3q0 10 2 12h-81q-3 5 -4 17q20 -1 33.5 -1.5t18.5 -2.5q9 0 33 -3q-6 16 -21 19.5t-29 8.5v14q30 -1 52 -13t48 -29q0 -3 0.5 -6t0.5 -4q-25 -13 -49.5 -24.5t-53.5 -11.5zM536 298q-11 2 -10 19q13 0 26 -1t27 -1q-11 -17 -43 -17zM495 318
q0 6 1 11.5t2 13.5q8 0 13.5 -3t18.5 -4q27 -4 47.5 -5t37.5 -3q0 -3 -0.5 -5l-0.5 -2l-10.5 -2t-10.5 -1q-8 0 -28 1.5t-56 3.5q-8 -5 -14 -5zM580 336q-12 0 -26 1.5t-27 2.5q8 29 27 19q11 -5 19.5 -11l15.5 -11q-1 -1 -9 -1zM569 392h3q3 0 7.5 4t20.5 16v4
q-2 -2 -11 -4v-4q-5 -4 -10 -7.5t-10 -8.5zM657 431q31 1 33 33h-15q-3 3 -3 7q-27 -5 -33 -24q8 0 15 6t17 11v-13l1 -0.5t3 -0.5q0 -2 0.5 -4t0.5 -4h-8q0 2 -1 4l-2 4h-4q-2 -2 -2 -5l6 -3v-4h-8v-7zM593 434q0 -1 3 16q5 0 10.5 10.5t8.5 19.5h10q0 -14 -9.5 -23.5
t-15.5 -21.5q-6 0 -7 -1zM589 453v51q12 -9 16.5 -14t4 -9.5t-5 -10.5t-10.5 -16q-4 0 -5 -1zM579 460q-1 1 -4 1q-3 13 -5 20.5t-2.5 13.5t-1 11t-0.5 14q4 0 6 -0.5t7 -0.5q2 -16 3 -30t1 -29h-4zM633 477q-7 12 -10 42q21 -7 27 -29q-5 -5 -8.5 -7.5t-8.5 -5.5zM561 482
q-5 0 -6.5 2t-6.5 6q-1 10 -4 21.5t-3 23.5q13 -8 17.5 -15t4.5 -19v-9q0 -4 1 -10h-3zM537 498q-1 0 -3.5 1t-7.5 2q-3 10 -4.5 21t-2.5 23q6 -3 13 -3q4 -13 5.5 -23.5t2.5 -18.5zM516 511l-12 5q-4 8 -5.5 17.5l-3.5 21.5h9q1 -4 4 -7h4q2 -17 7 -37h-3zM491 526
q-6 2 -16 9q-2 8 -4 14t-2 15q26 -8 26 -38h-4zM463 538q-21 11 -22 30q16 -3 27 -29q-2 0 -3.5 -0.5zM430 552l-9 9t-8 7q4 0 8.5 -1t12.5 -2q5 -11 3 -13h-7z" />
    <glyph glyph-name="comma" unicode="," horiz-adv-x="406" 
d="M362 362h2q-9 -1 -24 9t-32.5 27t-35.5 38t-33.5 42t-26 40t-12.5 30q-11 -15 -26 -40t-35 -52t-47 -52.5t-62 -41.5q17 -4 36.5 -21t38.5 -39.5t36.5 -47.5l31 -44.5l22 -31t9.5 -6.5q1 6 12 23t27.5 38l36 44l36.5 42t30 30.5t16 10.5v2z" />
    <glyph glyph-name="period" unicode="." horiz-adv-x="500" 
d="M387 308q1 -21 -12.5 -42.5t-34.5 -39.5t-45.5 -30t-43.5 -14q-26 -3 -52.5 7.5t-48 30t-36 44.5t-16.5 51q-1 27 3.5 56t20.5 53.5t45.5 41.5t78.5 20q36 6 66.5 -14.5t51 -51.5t27 -64t-6.5 -51z" />
    <glyph glyph-name="zero" unicode="0" horiz-adv-x="800" 
d="M401 1q91 -1 164 25t123.5 72.5t77.5 109.5t26 135q-1 57 -30.5 117.5t-83 110.5t-127.5 83t-163 35q-83 2 -153 -25.5t-120.5 -75t-78.5 -111t-28 -132.5q0 -40 15.5 -82t41.5 -82.5t61.5 -75.5t76 -60t84.5 -37.5t88 -6.5h26zM375 20q-29 -5 -52.5 18.5t-41.5 66
t-29 99t-13.5 117t3.5 120t23 107.5t45 80t69 38q49 7 86.5 -17.5t63.5 -69.5t40 -105t16 -123t-8 -123.5t-33 -107.5t-58.5 -74t-84.5 -23z" />
    <glyph glyph-name="one" unicode="1" horiz-adv-x="464" 
d="M-9 -16q13 3 23 7l21 8.5l24 10t32 10.5q33 9 72 10.5t78.5 -2t76.5 -9.5l66.5 -11t47.5 -8.5t19 -0.5q-21 2 -45 23l-53 47q-14 12 -25 46t-18.5 82.5t-10 106t1 116t14 114.5t29.5 100q1 3 14.5 9.5t31 16t35 21t26.5 23.5q-53 -15 -111.5 -21t-118 -4.5t-118.5 8.5
t-112 17q6 -15 20.5 -25.5t30.5 -19.5l30 -16.5t20 -15.5q31 -93 40 -175.5t4.5 -152t-18 -127t-27.5 -100.5z" />
    <glyph glyph-name="two" unicode="2" horiz-adv-x="665" 
d="M548 0q10 1 21 21t22 47.5l22.5 57t22.5 49.5q10 19 14 28.5t4 14.5q0 6 -1.5 10.5t-1.5 15.5q-17 2 -30.5 -1.5t-26 -9.5t-24.5 -13.5t-27 -13.5q-22 -7 -55.5 -24l-72 -35.5l-78 -36t-73.5 -25.5t-59 -3.5t-34 30.5q61 9 124.5 33t120 59t102 78t72 89t29.5 93.5
t-26 91.5t-94 81.5t-174 64.5q-29 7 -63 7q-46 0 -79 -9t-59 -14q-29 -25 -54.5 -43t-39.5 -41q-17 -29 -20.5 -60.5t10.5 -69.5q-5 -10 10 -25.5t36.5 -29t43 -20.5t29.5 1q40 3 65.5 18.5t38 37.5t13.5 47.5t-9 48.5q-5 12 -13.5 24l-16.5 24t-13.5 23t-5.5 21q0 12 20 20
q87 -14 134.5 -39.5t64.5 -59.5t7 -73.5t-38 -80.5t-70 -81.5t-89 -76t-96 -64t-90 -45.5q-8 -8 -15.5 -25.5t-13 -39t-9 -43t-3.5 -36.5q36 7 97 12t130 5q34 0 81 0.5t93 0t86 -4t61 -11.5z" />
    <glyph glyph-name="three" unicode="3" horiz-adv-x="665" 
d="M171 25l25 -12q102 -18 169 -12.5t107.5 20.5t59 32t23.5 21q61 53 83.5 108t13.5 103t-45 84t-91 51q1 5 -3.5 2.5t-4.5 -0.5q56 33 76 67.5t12 67t-39 61t-76.5 48.5t-101 30t-111.5 5q-66 -6 -109 -25t-69 -63q-17 -18 -18.5 -33.5t7 -25t24 -12t33.5 6.5
q46 43 94 61.5t86 17.5t60.5 -18.5t19 -46.5t-38 -66.5t-112.5 -78.5l-5 -1t-8 -3.5t-1.5 -6.5t14.5 -9q84 -31 129.5 -68t62 -74.5t8.5 -72.5t-32.5 -62t-60.5 -43.5t-75.5 -16t-78 20t-67.5 63.5q14 4 33.5 17.5t31.5 33t10 44.5t-30 52q-45 19 -77.5 16.5t-56.5 -19.5
q-17 -11 -24.5 -34.5t-0.5 -58.5q3 -5 3 -17q0 -11 12 -31t43 -50.5t96 -72.5z" />
    <glyph glyph-name="four" unicode="4" horiz-adv-x="694" 
d="M248 -18v-3q15 7 47 13t73 10t87 6t90.5 1t83 -5t63.5 -12q3 -5 -2.5 1.5t-18 17.5t-29.5 23t-36 18q11 -10 9 -8t-11 14.5t-21 35t-22 54.5t-14 73t4 90q3 4 10 4q10 0 26.5 -1t42.5 7q33 0 45.5 18t9.5 39.5t-21 38t-46 13.5q-9 -1 -21 -3.5t-23.5 -5.5l-20.5 -5.5
t-12 -3.5q2 47 3.5 76.5t3.5 49.5t4 34.5t5 32l7 42l11 64.5q-47 -13 -93 -16.5t-83 -2.5t-62 3.5t-30 1.5q-18 -5 -26.5 -14.5t-18.5 -26.5l-24.5 -42t-42.5 -61t-75.5 -84.5t-121.5 -110.5q4 -11 21.5 -34t39 -45t43.5 -36t36 -5q16 10 43.5 20.5t59.5 19t66.5 13
t65.5 1.5q15 -47 14 -82.5t-10 -65t-22 -54.5t-22 -51q-3 -7 -17 -13l-29.5 -12.5t-27.5 -14t-11 -17.5zM138 344l220 224q26 -42 29 -83t-14 -86q4 -4 -10 -8t-38 -8.5t-54.5 -9t-58 -9.5t-48 -10t-26.5 -10z" />
    <glyph glyph-name="five" unicode="5" horiz-adv-x="599" 
d="M224 9q-45 2 -75.5 8.5t-50.5 14.5q-15 6 -24.5 13.5t-17.5 20t-15.5 32t-17.5 48.5q0 20 -0.5 38.5t7 35t28.5 32t63 29.5l43.5 -22.5t30.5 -20t17 -23.5t4 -32q6 -23 -3.5 -40t-22.5 -29t-23 -18.5t-5 -7.5q62 -30 109.5 -28t79 24.5t48 59t16.5 75.5t-15 74.5
t-46.5 56t-78.5 20t-111 -34.5q-14 -8 -35.5 -9.5t-44.5 0.5t-45.5 7t-37.5 11q0 8 -0.5 14.5t-0.5 14.5q27 29 39 69t15.5 84.5t3 89.5t0.5 84q70 -4 128.5 -8t114 -5t113 4t127.5 20q-15 -65 -54.5 -102.5t-91.5 -50t-109.5 -1.5t-106.5 43q1 -9 -11.5 -33.5t-26 -54.5
t-21.5 -60.5t1 -51.5q37 16 83 29t93.5 18.5t94 1.5t85 -21.5t66 -50.5t37.5 -86q13 -86 -13.5 -144t-78.5 -92t-121.5 -44.5t-142.5 -1.5z" />
    <glyph glyph-name="six" unicode="6" horiz-adv-x="683" 
d="M342 -25v4q25 0 51 1t54.5 5t61 12.5t71.5 24.5q37 31 61 77.5t29.5 96.5t-10 96t-55.5 75q-51 25 -76.5 32.5t-43.5 7.5h-22q-18 0 -44.5 -6.5t-52.5 -15.5t-46 -18t-23 -13q-33 -42 -42.5 -83.5t-2.5 -74t28 -51t49 -14t61 37t63 102.5q12 22 25 31.5t25.5 12t23 1
t16.5 -0.5q25 -21 42 -47t21.5 -53t-5.5 -54t-38 -51q-36 -24 -81.5 -31t-90.5 1t-83 29.5t-58 54.5q-47 63 -60 135t4 139t63 120t118 79q60 -43 107 -50.5t72 5t23 37.5t-41 48q-34 9 -79 18t-95 9q-49 0 -98 -10.5t-90 -39.5q-54 -39 -91.5 -97.5t-56 -125t-17 -134.5
t25.5 -125q19 -36 47.5 -71t67 -63t86.5 -44.5t105 -14.5z" />
    <glyph glyph-name="seven" unicode="7" horiz-adv-x="690" 
d="M228 -12h-5h3h4h-6q-24 4 -25 9t10.5 12.5t30.5 18.5t34 26q38 47 73.5 99t62 113t41 131.5t9.5 154.5q-6 8 -32.5 5t-65 -14t-83 -28.5t-86.5 -40.5t-76.5 -49t-50.5 -53q-2 -9 -13 -8t-23.5 7t-22 15t-7.5 15q1 9 6 33l12 55.5l14.5 66.5t13.5 67t9 56.5t1 34.5
q16 -8 49.5 -13.5t77.5 -8.5t95 -4.5t102 -1.5q52 0 101.5 1.5t90 5t69.5 8t40 10.5q0 -13 -0.5 -40.5t-3.5 -56t-10.5 -51.5t-21.5 -26q-13 -10 -30.5 -37.5t-34 -67t-29.5 -87t-17 -97t4 -97t33 -86.5q-1 -12 5 -20t15 -16t18.5 -17.5t15.5 -23.5q20 -3 3 -1t-55 5
t-90 6.5t-103 4.5t-92.5 -2t-59.5 -13z" />
    <glyph glyph-name="eight" unicode="8" horiz-adv-x="713" 
d="M624 535v-17q0 -19 -9.5 -33.5t-24 -27.5t-32.5 -26.5t-35 -29.5q25 -10 55.5 -31t57.5 -46.5t45 -52.5t18 -50q0 -122 -97.5 -175.5t-281.5 -42.5q-43 2 -96.5 15t-101 39.5t-79.5 67t-32 96.5t23 89t50.5 51t50.5 25t23 11q0 -9 -11 0t-25.5 29t-29 47t-21 55t-2 53
t28.5 41q21 39 51 58t64.5 26.5t70 7t66.5 -0.5q43 0 93.5 -14t92.5 -38t68 -56.5t20 -69.5zM555 557l-5 20q0 19 -21 33t-52 21.5t-67.5 6t-67.5 -14.5t-52 -38.5t-21 -66.5q0 -22 5.5 -40t21.5 -31.5t45 -21t77 -7.5q39 0 66 10.5t43 29t22.5 44t5.5 55.5zM588 187l-2 12
q9 21 -15.5 43.5t-67 39.5t-95 25t-98.5 1t-77 -32.5t-31 -76.5q0 -25 14 -53t37 -51.5t53 -39t62 -15.5q41 0 78.5 -1.5t67.5 9.5t49.5 42.5t24.5 96.5z" />
    <glyph glyph-name="nine" unicode="9" horiz-adv-x="687" 
d="M67 596q36 36 72 59t73 35.5t75 16.5t78 3q91 -2 154.5 -40.5t101.5 -97t51 -127t3 -130.5q-9 -179 -122.5 -264t-334.5 -85q-60 0 -105.5 24t-70.5 59t-27.5 76t22.5 75q43 14 64.5 14.5t41.5 -14.5q34 -26 38.5 -42t-4 -29.5t-21 -27t-12.5 -33.5q0 -13 8.5 -26.5
t31.5 -22.5q36 -8 76.5 2.5t79 33.5t72 56.5t54.5 70.5t27 75.5t-10 72.5q-20 -27 -48 -45t-58 -28.5t-59 -14.5t-52 -4h-28h-11q-6 0 -9 1q-63 2 -101.5 20.5t-60.5 43t-30 50t-10 41.5q-8 36 -5 65t11.5 52.5t20 41.5t21.5 32zM188 470v-4q-17 -39 -12 -67.5t21.5 -48
t39 -31t41.5 -16.5q20 -6 45 -1.5t48.5 15.5t43.5 27.5t31 34.5q24 27 26 57t-11.5 57t-39 47.5t-56.5 29.5q-29 9 -59 4.5t-55 -18.5t-42.5 -36.5t-20.5 -49.5z" />
    <glyph glyph-name="A" unicode="A" horiz-adv-x="774" 
d="M-103 -164q-3 3 -6 -2t-3 -12t4.5 -12.5t17.5 -4.5q42 3 75.5 35.5t59.5 81t46 107t36 114l29 102t25 71.5q34 10 63 13.5t58 3t59.5 -4.5t67.5 -10q6 -40 12.5 -71l12.5 -61t9.5 -61t3.5 -71q0 -2 -3 -4t-11 -8l-23 -17l-39 -29q20 10 51.5 16t68 8.5t75.5 2t74.5 -3
t65 -6.5t45.5 -8q-19 21 -35.5 29.5t-33.5 18.5q-45 110 -66 207.5t-28 176t-4 135t6 86.5q7 2 4.5 2.5t-7.5 0.5h-7t2.5 1t23.5 3.5t56 8.5q7 7 9 10t1.5 3.5t-4 1t-6.5 3.5l-102 -8.5t-104.5 -7.5t-104 -3.5t-98.5 3.5q-39 5 -68.5 8t-53 5t-44 4t-42.5 5q-11 -4 -11.5 -9
t7.5 -7q14 -5 24.5 -6.5t26.5 -6.5q-29 -33 -38 -89.5t-9 -127.5q0 -70 4 -149t3 -157q-5 -49 -8.5 -92.5t-16 -81t-37.5 -69t-73 -56.5h-11t-13.5 -1t-11.5 -3.5t-5 -6.5h1zM190 371q3 4 8 26t11 52t13.5 63.5t16.5 62t18 48t19 20.5h25q10 0 16.5 -1t11.5 -1h13
q4 -2 12 -18.5t17 -41t17.5 -54t15.5 -59t11 -55.5t2 -43q-32 -8 -59.5 -11t-54 -2.5t-54 4.5t-59.5 10z" />
    <glyph glyph-name="B" unicode="B" horiz-adv-x="819" 
d="M381 0q19 0 39.5 -2t41 -3.5t41.5 -0.5t42 6q85 23 146 62.5t84 84.5q12 23 21 46.5t13 49t1 55t-16 64.5q-18 25 -42.5 39.5t-52 25t-56 19.5t-55.5 22v3q17 14 40.5 30t40 38t19 51.5t-22.5 70.5q-52 30 -106.5 35.5t-95.5 -4.5q-19 -5 -53.5 -12l-74 -15.5l-77.5 -17
t-65 -15.5q-22 0 -46 6t-46.5 14l-42 15t-32.5 9q-21 3 -24.5 -2t0.5 -11.5t8.5 -12t0.5 -3.5q10 -4 17.5 -6.5t13 -6.5t9 -10.5t6.5 -18.5q16 -68 23.5 -137.5t8 -139t-4.5 -138t-14 -133.5q-3 -6 -5 -7t-7 -2t-15.5 -4.5t-31.5 -14.5v-29q38 10 84.5 18.5t96 11t98.5 -4
t91 -25.5zM401 23q-26 12 -48.5 25.5l-45.5 27.5q-26 27 -37 61.5t-14.5 72t-3 75t-2.5 69.5q62 41 128 59t139 17q45 0 72 -21.5t39 -55t10 -75.5t-15 -84.5t-35.5 -80t-51.5 -63t-63.5 -34.5t-71.5 7zM246 394q2 20 2.5 47t3 54.5t9 53t21.5 42.5q29 24 51 39t42.5 22.5
t41.5 9t47 -1.5q27 -3 47 -11.5t30.5 -24.5t9.5 -42t-14 -63q-54 -54 -128.5 -83.5t-162.5 -41.5z" />
    <glyph glyph-name="C" unicode="C" horiz-adv-x="793" 
d="M304 0q-6 1 6.5 -1t37 -4t59 -1.5t72.5 6.5q10 2 31 7t47.5 12l54 14.5l51 14t39.5 10.5t18 4q10 -9 16.5 -20.5t13 -20t13 -11.5t16.5 5q-23 36 -46.5 89.5t-41 116t-25.5 129t1 129t38.5 115.5t85.5 88q11 18 9.5 31t-12 19t-27 4t-34.5 -13q-6 -6 -14.5 -17.5
l-17.5 -24t-18 -23t-15 -15.5q-88 40 -184.5 49.5t-195.5 7.5q-49 -1 -94 -26t-80.5 -66t-60 -94.5t-33.5 -112t1 -118.5t42 -113.5t90 -97.5t145 -70zM450 26q-66 8 -118 51t-84 105.5t-41.5 136.5t10.5 143t71 125.5t140 84.5q30 5 66.5 -7t68 -31t52 -39t19.5 -30
q-12 -91 -8.5 -158.5t13.5 -118t22.5 -87.5t18.5 -66q-25 -13 -51 -31.5t-54 -35t-59 -28t-66 -11.5v-3z" />
    <glyph glyph-name="D" unicode="D" horiz-adv-x="819" 
d="M124 18q51 1 108 -2.5t103.5 -8t75 -7.5t22.5 0q135 34 220 96.5t124 138t34 156.5t-48.5 152t-124.5 125.5t-194 75.5q-34 6 -64.5 3.5t-60.5 -11.5t-61 -23l-67 -30q-23 -12 -48 -15.5t-46.5 -0.5t-37.5 10t-22 15q-2 6 -10 13.5t-13 8.5t-1.5 -9t24.5 -41q5 -2 15 -7
t15 -24q9 -35 13.5 -88t6.5 -114t1.5 -123t-2.5 -114.5t-4.5 -89.5t-3.5 -47q-28 -20 -43 -32.5t-21.5 -19.5t-7.5 -9.5t-1 -1.5q-11 -8 -7.5 -8.5t14.5 3t28 10t33.5 11.5t30.5 8t20 0zM430 20q-77 11 -111.5 22t-40.5 31l-1 1q-13 69 -21.5 142t-8.5 148t9 152t30 156
q-2 5 15 18t40.5 24t47.5 15.5t38 -6.5q59 -27 97.5 -81.5t58 -122t19 -142.5t-19.5 -144t-57 -125.5t-93 -87.5h-2z" />
    <glyph glyph-name="E" unicode="E" horiz-adv-x="782" 
d="M716 -20q-16 37 -30 77t-24.5 81t-16 82.5t-3.5 82.5q1 52 4 108t16 109t39.5 100.5t73.5 82.5q3 14 3.5 25.5t-4 18.5t-16 10t-33.5 1q-11 -20 -24.5 -37.5l-33.5 -41.5q-144 33 -255 27t-191 -38.5t-130 -87t-71.5 -118.5t-15.5 -132.5t38 -129.5t88.5 -110t136 -74
t180.5 -20.5t223 50.5q6 -12 19.5 -32t18.5 -36q5 0 6 1.5t2 0.5zM411 11q-37 -5 -67 22t-52 69.5t-36.5 93t-21.5 95t-6 74.5t9 30q62 4 123.5 -9.5t112 -34t84.5 -43.5t42 -39q6 -23 12 -41.5t12.5 -36t12 -37t10.5 -43.5l-53.5 -35.5t-59 -33t-62 -23t-61.5 -6.5z
M236 422q5 53 26.5 100t54 83.5t74 59.5t86 26.5t89.5 -14.5t85 -64q-17 -75 -59.5 -115.5t-100.5 -58.5t-124.5 -19.5t-129.5 0.5z" />
    <glyph glyph-name="F" unicode="F" 
d="M35 -12q15 6 39 11t50.5 9t52.5 6t46 1q91 -4 142 -13.5t61 -14.5q-4 3 -10.5 10t-17 15.5t-25 16t-34.5 11.5q-11 35 -18.5 77.5t-11.5 89t-4 94.5q0 49 3 96h46t56 -3.5t57 -12t49 -25t31.5 -43t5.5 -64.5q-1 -8 -0.5 -21t1.5 -25.5t3.5 -20.5t6.5 -4.5t10.5 22
t15.5 58.5q3 24 11.5 64t21 86t28.5 94t35.5 89t40.5 70.5t44 38.5q9 12 9 21t-6.5 13.5t-18.5 3.5t-25 -7q-114 -15 -186.5 -27t-115.5 -21t-61.5 -15t-24 -9t-2.5 -2.5t2 4.5q-41 -5 -91 -8.5t-97 -3t-87 7t-62 23.5q-2 -11 6 -18t18.5 -13t20.5 -11t14 -11
q24 -44 36.5 -95.5t17.5 -105.5t3.5 -108.5t-6.5 -105t-12 -95t-13 -78.5l-43 -27.5t-11 -24.5zM309 433q-5 0 -4 0h4q3 0 4.5 0.5t-2.5 1.5q-7 50 15.5 94.5t55.5 81.5q54 23 92 37.5t71.5 24.5t68 16.5t81.5 12.5q-9 -23 -18 -43.5l-18.5 -41.5l-20.5 -43.5l-24 -50.5
q-18 -40 -54 -59.5t-79.5 -27t-88.5 -6.5t-81 3h-2z" />
    <glyph glyph-name="G" unicode="G" horiz-adv-x="826" 
d="M280 0q110 -22 193 -16t143.5 30.5t100.5 64t62.5 84t30 91t3.5 84.5q-6 52 -40 85t-81.5 47.5t-101 10.5t-97.5 -25.5t-71 -60.5t-21 -95q4 -43 21 -59t35 -15t33 14.5t16.5 30t-16 31t-64.5 16.5q-10 31 -2.5 53.5t26 36t44.5 19.5t52.5 4.5t51 -9.5t40.5 -22
q31 -27 43.5 -64t10.5 -77.5t-17.5 -81.5t-41.5 -75t-60.5 -59t-74 -33.5t-83.5 2t-88 47.5q-35 29 -59 80.5t-35.5 112.5t-9.5 127t18.5 124t48.5 103.5t81 65.5q37 15 74.5 13.5t72 -13t64.5 -29.5t52 -36q-3 -5 -4.5 -18.5t-3 -30t-2.5 -32.5t-2 -26q2 6 12.5 24.5
l25.5 43t33 51t34.5 48.5t30 35.5t19.5 11.5q8 3 -4.5 0t-32.5 -10t-40 -17t-27 -20q-4 -5 -31 5.5t-76.5 20t-119.5 8.5t-159 -29q-42 -17 -86.5 -42t-83 -55.5t-66 -65.5t-36.5 -74q-18 -71 -6 -142.5t48 -131.5t92.5 -103t127.5 -58h3z" />
    <glyph glyph-name="H" unicode="H" horiz-adv-x="720" 
d="M619 -204q13 1 27 5.5t24 11.5t14.5 16t-1.5 20q-11 7 -15.5 5t-8 -7l-7.5 -11t-13 -6q-22 0 -32.5 11.5t-12.5 29.5t2.5 41.5t12 47t17 46.5t17.5 40l24.5 75t25 96.5t14.5 104t-6.5 96.5t-38.5 76t-80.5 41.5t-133.5 -8t-198 -70.5q-6 -3 -1 -1t13.5 5l17 6t10.5 4
t-6.5 -2l-33.5 -12v-4q4 39 8.5 62t10 40.5t13 35t17.5 45.5q16 16 45.5 30.5t64.5 25t70 16.5t61.5 5t40 -10t4.5 -27q-13 -26 -7 -39t17 -13t21 14.5t5 43.5q-11 27 -35 40.5t-55.5 18.5t-68.5 2t-73.5 -10t-69 -15.5t-55.5 -15.5q-14 -4 -44.5 -8t-63 -6.5t-59 -3.5
t-32.5 2q-23 0 -33 1t-16 1q-13 -6 -9 -11t13.5 -9t18.5 -8.5t6 -9.5q15 -97 19 -182.5t1.5 -161.5t-8.5 -143.5l-11 -128.5q3 -1 1 -1.5t-7 -3t-13 -7t-16 -12.5q-11 -11 -10 -15.5t9.5 -4t22 5t25.5 11.5q9 7 39.5 10t68 2t72.5 -5.5t53 -13.5q24 -12 32 -11t7 7t-7.5 13
t-10.5 9q-21 8 -28 15t-12 5q-10 35 -18 81t-12.5 95t-3 97t11.5 87q15 26 29 42t32 24.5t42 12t59 3.5q63 -29 96.5 -65.5t47 -79t11.5 -89t-9 -96l-13.5 -100t-3.5 -99.5q1 -21 4.5 -46t12.5 -47.5t23.5 -39.5t37.5 -22z" />
    <glyph glyph-name="I" unicode="I" horiz-adv-x="464" 
d="M0 -37q13 3 23 7l21 8.5l24 10t32 10.5q33 9 72 10t78.5 -2t76.5 -9l66.5 -11t47.5 -8.5t19 -0.5q-21 2 -45 23l-53 47q-14 12 -25 46t-18.5 82.5t-10 106t1 116t14 114.5t29.5 100q1 3 14.5 9.5t31 16t35 21t26.5 23.5q-53 -15 -111.5 -21t-118 -4.5t-118.5 8.5t-112 17
q6 -15 20.5 -25.5t30.5 -19.5l30 -16.5t20 -15.5q31 -93 40 -175.5t4.5 -152t-18 -127t-27.5 -100.5z" />
    <glyph glyph-name="J" unicode="J" horiz-adv-x="636" 
d="M208 -144q30 -2 55.5 3t47 12.5t39 15.5t30.5 13q57 32 97 85t64.5 118t35.5 139t11 148t-9 144.5t-24 130.5q4 3 13.5 11l21 18t23 18.5t19.5 11.5q-17 0 -46.5 -7t-63 -16l-66.5 -17.5t-56 -11.5q-57 -8 -105.5 -4.5t-93.5 32.5q3 -11 21.5 -20.5t40 -19t40.5 -20
t22 -22.5q19 -39 30 -91.5t14 -111.5t-2 -122t-18 -123t-33 -114.5t-48 -96.5q-7 -14 -24.5 -23.5t-36.5 -15.5t-36 -7.5t-22 1.5q-27 8 -44.5 34.5t-25 61t-5.5 71t14 65t33 43.5t52 6q21 -15 17 -41q-4 -20 3 -31.5t17 -14.5t21 1t16 14.5t1.5 28t-21.5 39.5
q-41 27 -77 28.5t-70 -18.5q-15 -9 -27.5 -22t-22.5 -28t-16.5 -30t-9.5 -28q-8 -35 -2.5 -74.5t27 -74t60.5 -59t99 -29.5h20z" />
    <glyph glyph-name="K" unicode="K" horiz-adv-x="753" 
d="M700 -190q-10 -5 -11 -5l4.5 3t13 10t16.5 17q22 14 22.5 29t-8.5 22t-21 2t-15 -32q-25 -27 -42.5 -31.5t-28 6t-15 32t-3.5 46.5q1 20 16.5 52t36.5 70.5l43 81t35 84t13 78.5q0 38 -23 66.5t-73.5 45.5t-138.5 17q19 6 40.5 19.5t40 31t31.5 38t15 42.5
q0 19 -4.5 38.5t-12.5 40.5q-9 23 1.5 42t41.5 30q21 7 20.5 14t-14 9.5t-36 -1t-45 -16.5t-41 -38t-24.5 -65q-6 -16 -9 -40t-8 -49.5t-16 -48t-33 -34.5q-19 -11 -46.5 -21.5t-47.5 -14.5q-8 -3 -28 -3.5t-40.5 1t-36 6t-13.5 12.5q1 9 1.5 33t3.5 55t10 65.5t22 65.5
t38.5 55t60.5 33q-12 1 -35.5 -2t-55 -7.5t-69.5 -8t-80.5 -4.5t-87 3t-88.5 15l52 -45q20 -38 30.5 -94t14.5 -119t3 -127.5t-4.5 -118.5t-7.5 -92.5t-5 -49.5q4 1 -2.5 -2t-18 -9l-25.5 -14t-24.5 -16t-14.5 -15t4 -11q32 16 81.5 20.5t102 2.5t101.5 -8.5t81 -12.5
q-2 10 -12 18t-22 15l-22.5 13.5t-13.5 13.5q-11 26 -15 61t-4.5 73t1 75t3.5 68q7 8 23 16.5t43 13.5q55 11 76 11q73 -5 112 -35.5t56 -76t18 -100.5t-4 -110.5t-9 -106t3 -86t31 -51t77 -1.5z" />
    <glyph glyph-name="L" unicode="L" 
d="M2 -19q42 10 95 13.5t111.5 2t120.5 -6t122.5 -9.5t117 -9t103.5 -5q6 16 12 42.5t11.5 56.5l11 59t11.5 50q9 34 6.5 46t-13.5 8t-29 -20.5l-40 -38.5l-45.5 -46t-46.5 -44q-43 -31 -89.5 -44.5t-86 -9.5t-67 26.5t-31.5 64.5q2 -6 -2 32.5t-5.5 109t4 167t27.5 206.5
q13 1 24 4.5t22.5 11t24 20t29.5 32.5q-32 -4 -57.5 -10l-51 -12t-53.5 -10t-63.5 -3t-82.5 9t-110 26q-6 2 -3 -5t11 -17.5t19.5 -22t21.5 -20t17.5 -10.5t8.5 7l8.5 -143.5t5.5 -106t2 -84.5t-2.5 -77t-7.5 -84.5t-13 -107.5q-7 -6 -18 -11t-30 -15q-9 -5 -10 -9t3 -7
t11 -5t14 -5z" />
    <glyph glyph-name="M" unicode="M" horiz-adv-x="914" 
d="M66 -100q10 0 19.5 7t13.5 16q7 2 17 8t26.5 14.5t41.5 18t61 18.5q45 9 102.5 14.5t118.5 6t121 -6.5t109 -23q70 -23 113.5 -40.5t52.5 -16.5q-2 7 4.5 14t14.5 14.5t14 15t5 14.5q-7 3 -27 9t-43.5 11.5t-46 8t-34.5 -2.5q69 46 103 111.5t37.5 138t-21 146t-72 135.5
t-117 106t-154.5 58q-60 9 -123 -1q-96 -15 -171.5 -55.5t-127 -97.5t-76 -125.5t-18 -139.5t46.5 -139.5t117 -125.5q-18 -3 -47 -10.5t-56 -17.5t-46.5 -23t-19.5 -26zM515 22q3 -7 1 11.5t-6.5 56.5l-10.5 93t-10 121t-5.5 141.5t2.5 154.5q1 19 11.5 28.5t26 10.5
t34 -4.5t36 -15.5t31.5 -23.5t20 -27.5q42 -96 59 -174.5t14 -145t-21.5 -122t-46.5 -104.5h-135zM278 15q-24 40 -40.5 103t-17.5 137t17 154t63 154q11 18 25.5 36.5t31 28t34.5 5t35 -32.5q14 -92 15.5 -176t-4 -158t-16.5 -136.5t-21 -111.5z" />
    <glyph glyph-name="N" unicode="N" horiz-adv-x="786" 
d="M647 -197q100 4 74 59q-23 11 -35 -16q-11 -21 -11 -30q-31 0 -52 10t-34 26t-17.5 37t-1.5 42q6 37 33.5 88l61 110t64 122t43 123t-1.5 114.5t-70 96.5q-14 30 -58.5 58.5t-102 45.5t-117.5 17.5t-104 -23.5q-33 -9 -68 -17.5t-71.5 -13.5t-73.5 -7t-73 2q-8 2 -14 1
t-8 -2q0 -10 4.5 -14t12.5 -6t18 -3t21 -4q16 -29 24.5 -75t11 -100.5t0 -114t-8 -115t-13.5 -103.5t-16 -80q-1 -3 -10.5 -10t-19.5 -15.5t-16.5 -17t-1.5 -15.5q21 8 55.5 14t78 6.5t93.5 -4.5t104 -18q-2 17 -23 35t-50 23q-5 61 -8.5 131t-4 141t4.5 140t19 128
q1 13 7.5 33t25.5 34q52 37 90 44.5t64.5 -8t43 -49.5t24.5 -80t10 -100t-1 -109t-9.5 -107t-13.5 -94.5t-14.5 -71t-11.5 -35.5q-11 -17 -10.5 -40.5t8 -47t20 -45t26.5 -34.5q10 -10 18 -19t19 -16.5t26.5 -13t39.5 -7.5z" />
    <glyph glyph-name="O" unicode="O" horiz-adv-x="797" 
d="M399 8q91 -1 164 25t123.5 72.5t77.5 109.5t26 135q-1 57 -30.5 117.5t-83 110.5t-127.5 83t-163 35q-83 2 -153 -25.5t-120.5 -75t-78.5 -111t-28 -132.5q0 -40 15.5 -82t41.5 -82.5t61.5 -75.5t76 -60t84.5 -37.5t88 -6.5h26zM373 27q-29 -5 -52.5 18.5t-41.5 66
t-29 99t-13.5 117t3.5 120t23 107.5t45 80t69 38q49 7 86.5 -17.5t63.5 -69.5t40 -105t16 -123t-8 -123.5t-33 -107.5t-58.5 -74t-84.5 -23z" />
    <glyph glyph-name="P" unicode="P" horiz-adv-x="687" 
d="M337 345q38 -20 82 -25t87.5 2t81.5 26t65.5 47.5t39.5 67t2 84.5q-2 20 -7.5 36.5t-15.5 32.5t-25.5 32.5t-36.5 36.5q-8 7 -30.5 14.5t-53.5 14t-68.5 11t-75.5 5.5t-73 -2t-62 -12q-99 -31 -157 -34.5t-82 2t-18 10t35 -10.5q7 -9 10.5 -13t7 -6t10 -2.5l19.5 -1.5
q28 -79 39.5 -164t10.5 -166t-13 -153.5t-31 -125.5q-12 -1 -26.5 -10t-28.5 -21t-25 -23.5t-14 -17.5q16 1 39.5 8.5l54 16.5t68.5 15.5t83 5t97 -13.5t112 -40q-6 11 -7 17t-7 11t-21.5 13t-51.5 24q-12 3 -20.5 23t-14.5 49t-9 63.5t-3 68.5t3 63t9 47zM336 379
q-23 6 -27.5 5.5t-2 -1.5t7.5 -0.5t2 7.5q-6 14 -8 39t-2 54t2 59.5t5 56t6 43.5t5 22q15 29 41 41.5t54 8t53 -26t38 -61.5q7 -21 10 -51.5t1.5 -63t-8 -62.5t-18.5 -51q-14 -26 -30.5 -35.5t-33 -11t-32.5 2t-31 4.5z" />
    <glyph glyph-name="Q" unicode="Q" horiz-adv-x="862" 
d="M539 11q5 0 20.5 1.5t33 4t33 5t21.5 4.5q39 12 63.5 7t44 -16.5t38 -24t44.5 -14.5q22 4 38 12t19.5 14t-7.5 6.5t-43 -10.5q-17 2 -24.5 15t-12 29t-8 32t-11.5 24q-22 12 -39.5 12.5t-33.5 -5.5t-31 -16.5l-31.5 -21t-36 -18.5t-44.5 -9q46 14 85.5 44t69.5 70.5
t49 88.5t24 99q0 59 -30 121.5t-86 114t-138 85t-185 35.5q-96 -14 -163.5 -50t-111 -84.5t-65 -104.5t-25.5 -108q3 -39 15.5 -82t35 -84.5t57 -78t81.5 -62.5t108.5 -39t137.5 -7q17 0 46.5 2t61.5 9zM400 37q-53 1 -89.5 31t-58.5 78t-30.5 109t-5.5 123.5t17 120.5
t37 101.5t53.5 66t67.5 12.5q53 -14 90 -50t60 -85.5t32.5 -107.5t7.5 -116t-15.5 -111.5t-37 -93t-56 -61.5t-72.5 -17z" />
    <glyph glyph-name="R" unicode="R" horiz-adv-x="746" 
d="M676 -183q-12 21 -25 18.5t-29 -12.5q-21 -3 -31.5 9.5t-13.5 32t1.5 40.5t13.5 35l29.5 44.5t39.5 65t40 78t31 84t13 82.5t-15 73q-3 6 -8.5 19t-22 29t-47.5 33.5t-84 33.5q33 10 59.5 20.5t43.5 31.5q16 24 18 49.5t-5.5 48t-22 38.5t-32.5 22q-66 24 -202 12
q-72 -17 -127 -26.5t-103 -9.5t-94.5 10t-100.5 32q-3 -1 -2 -9.5t6 -18.5t14 -19t22 -11q18 -23 32 -69t23 -104.5t11 -124t-4.5 -126.5t-22 -113t-41.5 -83q-10 -11 -22 -23t-18 -33q6 0 9.5 1t9.5 3.5t16.5 8l28.5 15.5q30 8 50 12t35 6t26.5 2.5t23.5 0.5q26 0 77 -9.5
t114 -35.5q5 12 -1 22t-18.5 19.5t-28.5 19.5t-31 24q7 -2 1 15t-14 56.5t-12.5 104.5t5.5 160q2 22 21 34.5t46.5 16.5t59.5 0t60.5 -14.5t48.5 -26.5t25 -36q6 -30 6.5 -68t-3.5 -78.5t-10.5 -81t-13 -75l-11.5 -60t-6 -35.5q-8 -56 0 -87.5t20.5 -47.5t24.5 -20.5
t14 -5.5q-1 -2 12 -7t30 -9t33.5 -5.5t22.5 4.5zM287 467q-7 56 5 98t35 69.5t54 42t61.5 15.5t57 -10.5t41 -35t13 -58.5t-26.5 -81q-32 -18 -62.5 -22.5t-59.5 -6.5t-56.5 -5.5t-53.5 -19.5z" />
    <glyph glyph-name="S" unicode="S" horiz-adv-x="644" 
d="M206 51q-53 6 -82 23t-31 26q8 -1 12 18t5.5 40t0 36t-5.5 5q-14 -36 -33 -65.5t-37 -51.5t-33 -34.5t-22 -14.5q24 3 35.5 6t18 6.5l13.5 7t23 8.5l57.5 -30.5t50.5 -24.5t58.5 -19t80.5 -13q37 -4 74.5 -5t74 5.5t72.5 24.5t72 51q21 20 29.5 48t7.5 58.5t-10.5 60.5
t-25.5 55q-26 39 -68.5 68.5t-90.5 52.5t-94.5 42.5t-80 39.5t-47.5 43t4 54q30 52 70.5 68t81.5 9t77.5 -30.5t57.5 -50.5q-1 10 -1.5 6.5t0 -13.5t1.5 -23.5t3 -25.5t5.5 -18.5t9.5 -1.5q-2 42 6 64t19.5 34t22 18t14.5 15q6 15 3 21t-8.5 7t-10.5 -1t-4 -2q-4 0 -11.5 -4
t-15 -10t-14.5 -14t-10 -16q-15 22 -46.5 45t-73.5 40.5t-91 26.5t-97.5 5t-93 -25t-77.5 -63q-34 -44 -37.5 -88t10.5 -81.5t38.5 -65.5t46.5 -40q33 -17 71.5 -35l77 -37.5t72.5 -40.5t57.5 -44.5t34 -49t0.5 -54.5q-26 -38 -79 -52.5t-125 3.5z" />
    <glyph glyph-name="T" unicode="T" horiz-adv-x="830" 
d="M191 -13q68 16 118 24.5t87.5 10.5t66 -0.5t54.5 -7t51.5 -10t57.5 -9.5q6 -3 -0.5 4t-21 18t-33.5 22.5t-37 17.5q-20 47 -29.5 115.5t-11 142.5t4.5 144.5t17 121.5q5 24 22.5 37t40.5 13.5t49.5 -12t50.5 -40.5l84.5 -99.5t49.5 -52.5t13.5 4.5t-23.5 70.5
q-12 30 -19.5 56t-13.5 50t-12.5 46.5t-17.5 45.5q-118 -16 -225.5 -18.5t-196 0.5t-153.5 9.5t-98 8.5q-5 -59 -19 -111t-25 -86q-18 -45 -20.5 -65t5.5 -21t24.5 13.5t36 38t40 52.5t36.5 57q16 17 35 31.5t37 19t33.5 -4.5t24.5 -39q19 -66 26 -141t5.5 -146.5t-9.5 -134
t-18 -104.5q-4 -2 -14.5 -12.5t-29.5 -22.5z" />
    <glyph glyph-name="U" unicode="U" horiz-adv-x="797" 
d="M500 77q1 -19 10 -33.5t23 -24t32.5 -14.5t38.5 -4q32 -10 57.5 -11t46 6t38.5 23t35 40q10 14 8 29t-10 23t-18 5t-16 -25q6 -15 7 -23.5t1 -15.5q-16 -15 -35.5 -20t-36 -2t-28 13t-12.5 25q-9 66 -9.5 135.5t5.5 140t18 140.5t28 135q2 16 13 27.5t24.5 20l26 16
t17.5 16.5q-3 0 -12.5 -2.5l-19.5 -5t-18 -5l-8 -2.5q-36 -5 -76.5 -8t-87.5 -3q-25 0 -52.5 2.5t-52.5 6t-45.5 8t-31.5 9.5q5 -14 20 -27.5t56 -24.5q14 -57 20 -116.5t6 -116.5t-5 -110t-12 -97t-16 -77t-16 -50q-14 -15 -21 -24.5t-16.5 -14.5t-26 -6t-49.5 2
q-44 25 -64.5 67t-25.5 95.5t1 116.5t17 129q4 25 8.5 48t7 45t2 44.5t-5.5 47.5q-1 13 -19.5 29.5t-45.5 32.5q-20 11 -40 13.5t-36.5 -1.5t-27 -13t-10.5 -21q0 2 -4.5 -6t-7.5 -20t-1.5 -25t13.5 -20q15 -6 23.5 -5.5t13.5 5t7.5 10.5t5.5 11q-7 15 -15.5 23.5t-15.5 6.5
q12 18 30 24t35 1.5t29.5 -17.5t14.5 -34q4 -14 -0.5 -28t-13 -28.5t-20 -29.5t-20.5 -30q-27 -44 -58.5 -89.5t-51 -95.5t-19 -106.5t37.5 -121.5q13 -18 38 -36.5t57 -34t69.5 -25.5t74.5 -12.5t71.5 6t62.5 29.5q15 11 22 18t13 14.5t13 18t21 27.5z" />
    <glyph glyph-name="V" unicode="V" horiz-adv-x="731" 
d="M103 -20q1 -3 11 0.5l22 8t24 8t19 1.5q7 4 23.5 8t37.5 6.5t43.5 4t41.5 1.5q-5 0 17 -1t63 -4.5t96.5 -10t116.5 -17.5q-20 19 -29 28.5t-12 13t-2 3t2 -0.5q-11 9 -25.5 10.5t-17.5 4.5q-2 22 1.5 67t12 102.5t21.5 122.5t31.5 126t42 113.5t52.5 85.5q12 14 20 18
t13.5 6.5t10.5 8t11 23.5q-12 4 -11 6t1 0q0 -1 -8 -6.5t-38 -16.5q-25 -9 -57 -11t-66 -0.5t-66.5 5.5t-58.5 8q-10 -3 -19.5 0.5t-16.5 6.5t-11.5 3.5t-4.5 -8.5q16 -20 22.5 -25t8 -5.5t-0.5 -0.5q-1 0 1 -9q7 -90 -2.5 -175t-26.5 -160.5t-37.5 -139.5l-35.5 -112
q-1 2 -7 6q-29 43 -52.5 107.5t-40.5 137.5t-26.5 149.5t-9.5 144.5q-6 6 4.5 12.5l25 15t27.5 20.5t12 30q-6 1 -13.5 -1.5t-15 -6t-15 -6.5t-12.5 -3q-53 -11 -89.5 -8t-66.5 8q-12 1 -22.5 9t-21.5 8q-1 -23 7.5 -34t19.5 -17l21.5 -12t14.5 -18l56 -196.5t38 -144
t24 -100.5t13.5 -65.5t6 -40l2.5 -23.5q-8 -4 -24 -13.5l-42 -24.5z" />
    <glyph glyph-name="W" unicode="W" horiz-adv-x="998" 
d="M120 -15q10 1 19 5t18 8.5t17.5 7t18.5 1.5q27 10 51 10q25 0 48 -5t46.5 -11t47.5 -8q2 12 -15 24t-43 20q11 48 24 97.5t30 96t39.5 86t52.5 67.5q2 -1 9.5 -0.5t8.5 0.5l16 -46l25 -76.5l30 -98.5l32 -112q-10 -6 -22.5 -12.5t-23 -13.5t-17.5 -14.5t-5 -14.5
q1 -2 11.5 0.5t23.5 6.5t24.5 8t13.5 4q28 3 64 2.5t75 -3t80 -8t81 -13.5q-2 4 -12.5 13.5t-23 18.5t-23.5 16t-14 8q-1 109 31 254t86 333q-1 0 5.5 4t15 8.5l15.5 8.5l7 4q0 -3 6 2.5t13 13t11.5 14.5t0.5 9q-8 -14 -31.5 -21t-54.5 -10.5t-66 -3.5q-34 0 -61.5 1
t-45 2.5t-14.5 0.5q-17 4 -34 10.5t-30 7.5q12 -23 20 -31.5t13 -11.5t8 -3.5t6 -7.5q5 -74 -2 -151t-19 -144t-25 -118.5t-21 -73.5q-14 9 -28.5 36.5t-29 65t-28 80.5l-25.5 84.5t-21.5 77.5t-14.5 58q-2 7 -8.5 9.5t-13.5 2t-13 -3t-7 -4.5q-36 -74 -63 -141.5
l-48.5 -121.5t-39 -90t-33.5 -46l-24.5 117t-23 125t-12.5 125t7 118q4 1 14 6.5t21.5 13t22.5 16.5t18 16q4 5 -7 3.5t-27.5 -5.5t-32.5 -8.5t-20 -4.5q-36 -2 -67.5 -3.5t-61.5 0t-60.5 6t-65.5 15.5q21 -26 34 -35l23 -16q25 -53 48 -125t41 -151.5t30.5 -161
t15.5 -153.5q4 -15 -4 -23t-18 -14t-17 -12.5t-2 -16.5z" />
    <glyph glyph-name="X" unicode="X" horiz-adv-x="724" 
d="M-33 4q20 -3 47 0t56 7t57 7t50 0q2 6 23 1.5t48 -11.5t54 -11.5t42 3.5q-11 1 -19.5 7.5t-16 14.5l-14.5 15.5t-15 11.5q-1 18 8 43t23.5 50.5t32 50t33.5 43t28 28t15 5.5l53 -59t49 -57t40 -60.5t26 -69.5q-12 -1 -18 -3t-10.5 -5t-10 -8t-15.5 -11q-2 -9 6.5 -8t20 5
l22.5 8t15 2q14 6 26 9t24 3.5t24.5 -1.5t28.5 -5q5 0 10.5 -3l11.5 -6t11 -4.5t10 0.5q-18 14 -37 23.5t-37 31.5l-146.5 172t-67.5 88q-3 7 12.5 35t40 66.5l53.5 81l54 78l41.5 58.5t14.5 22q14 6 23 11.5t17 11.5t17 12t23 13q-6 -1 -25.5 -3.5t-69.5 -7.5
q-19 -2 -51 -0.5t-65.5 3.5t-63.5 4.5t-45 3.5q-1 -7 7 -12.5t19 -9.5t21.5 -6.5l14.5 -3.5q-9 -33 -26 -63t-37.5 -58.5t-43.5 -55l-44 -52.5q1 -3 -18 14t-47 49t-60 76.5t-56 97.5q21 9 31.5 15.5t14 10.5t2 5t-4.5 0q-31 -8 -61.5 -15t-58.5 -9q-23 2 -45 6t-42 6
q-7 -4 0 -10q7 -11 28.5 -16t48.5 -5q2 0 14.5 -9.5t39.5 -38.5t70 -82.5t106 -140.5l-30 -48l-40 -59.5l-46 -65l-48 -65l-46 -58.5t-39 -46q-2 -2 -6 -2.5t-13 -3.5t-25.5 -12t-43.5 -29z" />
    <glyph glyph-name="Y" unicode="Y" horiz-adv-x="713" 
d="M5 700q5 -20 21.5 -33t32 -23.5t25.5 -19.5t3 -19q-31 -47 -45.5 -102.5t-15 -114t12 -116t35.5 -107t55 -87t70.5 -57t82.5 -16.5t91 35q24 16 39.5 30.5t25.5 26.5t16.5 21.5t13.5 16.5q-6 -42 -15.5 -81t-27.5 -78t-47.5 -80t-75.5 -87q-13 -13 -35.5 -31t-49 -36.5
t-54 -34t-50.5 -24t-39 -7.5t-20 16q-8 33 -22.5 41t-25.5 0t-13.5 -26t13.5 -36q30 -18 82.5 -12t117 32.5t135 71.5t134.5 104q55 51 87.5 98t49.5 96.5t23.5 105t11 123.5t11.5 152.5t24 191.5q-3 -2 3.5 4t17.5 15t22.5 19.5t17 18.5t3 12.5t-20.5 1.5
q-15 -13 -46 -21.5t-66.5 -13.5t-70 -6.5t-56.5 1.5q-18 -5 -36 -3.5t-34.5 5l-32 7t-28.5 2.5l87 -67q5 -48 9 -111.5t4 -125.5q0 -61 -6 -113.5t-21 -79.5q-17 -62 -41.5 -88.5t-53 -25.5t-58.5 25.5t-57.5 65.5t-50.5 94t-37 110.5t-16.5 115.5t10.5 109q4 14 21.5 29
t37.5 28t37.5 23t21.5 15q1 2 -20 -1t-50 -5.5t-60 -1.5t-49 11z" />
    <glyph glyph-name="Z" unicode="Z" horiz-adv-x="746" 
d="M31 -29q55 44 115 66.5t121 27.5t121 -3.5t115 -25.5t102 -40t83 -46q5 -3 9.5 16l12 49t19.5 64.5t32 61.5q-8 0 -20 -7.5t-26 -19.5t-29.5 -27l-30.5 -30q-15 10 -44 18t-63.5 14t-69.5 9.5t-62 4t-41 -2t-6 -8.5q20 71 60 147t90.5 149.5t107 140.5t110.5 121
q6 0 3.5 3.5t-8 8t-10.5 8t-3 5.5q-49 18 -106 25t-117 5t-121.5 -11.5t-118.5 -24.5q-18 -5 -40 0t-45 12.5t-45.5 13.5t-42.5 3q-3 0 -10.5 -13.5t-15.5 -30.5t-14 -32.5t-6 -21.5q-17 -46 -24 -79t-8.5 -55.5t0.5 -34t3 -14.5q49 48 100 92t104 77.5t108.5 53.5t112.5 20
q-20 -98 -68 -180t-108.5 -154.5t-124.5 -139.5t-115 -134q-4 1 -7.5 -9.5t-4 -23.5t4.5 -25t18 -15z" />
    <glyph glyph-name="a" unicode="a" horiz-adv-x="658" 
d="M-106 -165q-2 2 -5 -2t-3 -10t4.5 -11t15.5 -4q37 3 67 31.5t53.5 71t42 94t33 100l26.5 89.5t23 63q30 8 55.5 11.5t51 2.5t53 -4.5t59.5 -8.5q6 -35 12 -62.5t11 -53t8 -53t3 -62.5q0 -2 -2.5 -4t-10 -7l-21 -14.5l-34.5 -25.5q27 13 74.5 18t98.5 4.5t96 -5t67 -9.5
q-17 18 -31.5 25.5t-29.5 16.5q-39 97 -58 182t-25 154t-3.5 119t5.5 76q6 2 4 2.5t-7 0.5h-7q-2 0 3 1t20.5 3t49.5 7q6 6 8 8.5t1.5 3.5t-3.5 1.5t-6 2.5l-182 -14t-179 0q-35 4 -60.5 6.5l-46.5 4.5t-39 4t-38 4q-9 -3 -9.5 -7.5t5.5 -6.5q14 -4 23 -5.5t23 -5.5
q-25 -29 -33.5 -78.5t-8.5 -111.5t4 -131.5t3 -138.5q-4 -43 -8.5 -81t-16.5 -71t-35 -61t-65 -49h-10t-12 -1t-10 -3t-4 -6zM159 305q2 4 6.5 23t10 45t12.5 56t14.5 55t16 42t16.5 18h22q9 0 14.5 -1t10.5 -1h11q4 -2 11 -16t14.5 -35.5t15.5 -48t14.5 -52t9.5 -48.5
t2 -38q-28 -7 -52.5 -9.5t-48 -2t-48 4t-52.5 8.5z" />
    <glyph glyph-name="b" unicode="b" 
d="M324 -2q35 0 70.5 -4.5t72.5 4.5q75 20 128 54.5t73 73.5q10 20 18 40.5t11.5 43t0.5 48t-14 55.5q-16 22 -37 35t-45 22.5t-48.5 17t-48.5 18.5v3q15 12 35.5 26t35 33.5t16.5 45.5t-20 61q-45 26 -93 30.5t-83 -3.5q-17 -4 -47 -10.5l-64 -14l-67.5 -15t-57.5 -13.5
q-19 0 -39.5 5.5t-40 12t-36.5 13t-29 8.5q-18 3 -21 -1.5t0 -10.5t7.5 -11t0.5 -3q17 -7 26 -11.5t14 -25.5q14 -59 20.5 -119.5t7 -121t-4 -120t-11.5 -116.5q-3 -5 -5 -6t-6.5 -1.5t-13.5 -4t-27 -12.5v-26q33 9 73.5 16.5t83.5 9.5t86 -3.5t79 -22.5zM342 18
q-23 11 -43 22.5l-40 23.5q-22 23 -31.5 53.5t-12.5 63.5t-3 65q0 33 -2 60q54 36 111.5 52t121.5 15q39 0 63 -18.5t34 -48t8.5 -66.5t-13 -73.5t-31 -69.5t-45 -55.5t-55.5 -30t-62 6.5zM207 342q2 18 2 41q0 24 2 48t8 46t19 37q25 21 44.5 34t37.5 19.5t36 8t41 -1.5
q24 -3 41 -10t26 -21.5t8.5 -36.5t-12.5 -55q-46 -47 -111.5 -72.5t-141.5 -36.5z" />
    <glyph glyph-name="c" unicode="c" horiz-adv-x="702" 
d="M266 -10q-5 1 5.5 -1t32 -3.5t51.5 -1t64 5.5q13 2 46.5 10.5l69 17.5l63.5 16.5t31 7.5q9 -8 15 -17t11.5 -16t11.5 -9.5t14 3.5q-20 30 -41 74.5t-36 97t-21.5 108.5t1.5 108.5t33.5 97t74.5 73.5q10 15 8.5 26t-10.5 16t-23.5 3.5t-29.5 -11.5q-6 -5 -13.5 -14.5
l-16 -19.5l-16 -19t-12.5 -13q-77 32 -162 40.5t-171 6.5q-43 -1 -82 -22t-70.5 -55t-53 -79t-29 -94t1 -99.5t37 -95.5t78.5 -81.5t127 -58.5zM393 12q-44 5 -80.5 27t-64 55.5t-45 76t-23 87.5t2 90.5t31 85t63 71t97.5 49.5q26 4 58 -6.5t60 -26t46 -32t17 -25.5
q-11 -76 -8.5 -132.5t11.5 -99t20 -73.5t16 -56q-22 -11 -44.5 -26t-47 -29t-51.5 -23.5t-58 -9.5v-3z" />
    <glyph glyph-name="d" unicode="d" horiz-adv-x="694" 
d="M86 7q45 1 94.5 -2t90 -6.5t65 -6.5t19.5 0q118 29 191.5 82t107.5 117t29.5 133t-42.5 129.5t-108 106.5t-168 64q-30 5 -56 3t-52 -9.5t-53.5 -19.5l-58.5 -26q-21 -11 -42.5 -13.5t-40 0t-32 8.5t-18.5 13q-2 4 -9 11t-11.5 8t-1.5 -8t22 -35q5 -2 13 -6t13 -20
q7 -30 11.5 -75t6 -96.5t1 -104.5t-2 -97.5t-3.5 -75.5t-3 -40q-24 -17 -37 -27.5t-19 -16.5t-7 -8.5t-1 -1.5q-9 -7 -6 -7q2 0 11.5 3t24 8.5t29 9.5t26.5 6.5t17 -0.5zM352 9q-66 11 -96 19.5t-35 25.5l-1 1q-11 59 -18.5 120.5t-7.5 125.5t7.5 129.5t26.5 131.5
q-2 5 12.5 16t35 20.5t41.5 13t33 -5.5q51 -23 85 -69t50.5 -103.5t16 -121.5t-17 -122.5t-49.5 -106.5t-81 -74h-2z" />
    <glyph glyph-name="e" unicode="e" horiz-adv-x="694" 
d="M666 -11q-29 65 -50.5 135.5t-17.5 140.5q1 44 4 92t14.5 93.5t35.5 86t67 70.5q3 12 3.5 21.5t-4 15.5t-15 8.5t-30.5 1.5q-9 -17 -21 -32t-32 -36q-131 28 -232 23t-174 -33t-118 -74t-64.5 -101t-14 -113.5t34.5 -111t80.5 -94t123.5 -63t164 -17.5t203 43
q6 -10 18.5 -26.5t17.5 -30.5q4 0 5 1t2 0zM388 16q-34 -4 -61 19t-47.5 59t-33.5 79.5t-19.5 81t-6 63.5t8.5 26q57 3 113 -8.5t102 -29t77 -37.5t38 -33q5 -20 10.5 -35.5t11.5 -30.5t11.5 -31t9.5 -37l-49 -30.5t-54 -28t-56.5 -20t-55.5 -6.5zM228 367q5 45 24.5 85.5
t49.5 71.5t67 50.5t77.5 22.5t81.5 -12.5t78 -54.5q-10 -43 -31.5 -72t-50 -48t-64 -28.5t-74 -13.5t-78.5 -4t-79 1z" />
    <glyph glyph-name="f" unicode="f" horiz-adv-x="621" 
d="M8 5q13 5 34 9.5t44 7.5t46 5t40 1q80 -4 125 -12t53 -12q-4 3 -10 9t-15 13t-21.5 13.5t-29.5 9.5q-9 30 -16 66.5t-10.5 76.5t-3.5 81t3 82h40q24 0 49.5 -3t49.5 -10.5t42.5 -21.5t28 -36.5t4.5 -55.5q-1 -10 -0.5 -29t4 -28t10 2.5t18.5 62.5q3 21 10 55t18 73.5
t25.5 80.5t31 76.5t35 60.5t38.5 33q17 20 3 28.5t-39 -2.5q-99 -13 -162.5 -23t-101 -18t-54 -13.5t-21 -8t-2 -2t2.5 4.5q-36 -4 -80 -7t-86 -3q-41 0 -75.5 6t-53.5 20q-2 -9 5 -15t16 -11t18 -9.5t12 -9.5q21 -38 32.5 -82t15.5 -90t2.5 -92.5t-6 -90t-10.5 -81.5
l-11 -67l-38 -24t-9 -21zM248 385q-4 0 -3 0h3t3.5 0.5t-1.5 2.5q-7 42 13 80t49 70l80 32t62 21t59 13.5t71 11.5q-7 -20 -14.5 -37.5t-16 -35l-18 -37l-20.5 -43.5q-16 -34 -47.5 -51t-69.5 -23.5t-77.5 -5.5t-70.5 2h-2z" />
    <glyph glyph-name="g" unicode="g" horiz-adv-x="727" 
d="M250 10q97 -18 170.5 -13t126.5 25.5t88 53.5t55 70.5t26.5 76.5t2.5 71q-5 44 -35 72t-72 40t-89 9t-86 -21t-62.5 -51t-18.5 -80q4 -36 19 -49.5t31 -12.5t29.5 12.5t14.5 25t-14.5 26t-56.5 14.5q-9 26 -2.5 44.5t22.5 30t39 16t46.5 3.5t44.5 -8t35 -18
q36 -31 44.5 -75.5t-4.5 -90t-44 -85.5t-73.5 -61.5t-93 -18t-102.5 44.5q-31 24 -52 67t-30.5 94.5t-8 106.5t16 104t42.5 87t71 55q33 13 66 11.5t63.5 -11t56.5 -24.5t46 -30q-3 -5 -4.5 -16t-3 -24.5t-2 -27t-1.5 -22.5q1 5 10.5 20.5l23 36l29 43t30.5 41t26.5 29.5
t17.5 10q7 3 -4.5 0t-29 -9t-35 -14t-23.5 -17q-2 -3 -13.5 0.5t-32 9t-49 11.5t-66 7.5t-82.5 -3.5t-97 -21q-37 -14 -76 -35t-73 -46.5t-58.5 -55t-32.5 -62.5q-16 -60 -5 -120t42.5 -110.5t81.5 -87t112 -48.5h3z" />
    <glyph glyph-name="h" unicode="h" horiz-adv-x="607" 
d="M531 -188q12 1 24 4.5t21 9.5t12.5 14t-0.5 18q-9 6 -13.5 4t-7.5 -7t-7 -10t-11 -5q-28 0 -38 22t-8.5 52.5t10.5 63t19 54.5q9 26 21 65t21 83.5t12.5 90t-5.5 83.5t-33 65.5t-68.5 36t-114 -6.5t-168.5 -61q-5 -2 -1 -1t11.5 3.5t15 5.5t9 4t-5.5 -1.5l-29 -10.5v-3
q3 33 7 53t9 35t11 29.5t14 38.5q13 14 38.5 27t55.5 22t60 14t52.5 4t34 -8.5t4.5 -23.5q-11 -22 -6.5 -33.5t14 -11t17.5 13t4 37.5q-9 23 -29 35t-47 16t-58.5 1.5t-62 -8t-58.5 -13.5l-48 -14q-12 -3 -38 -6.5t-53.5 -6t-50.5 -3t-28 1.5q-20 0 -28.5 1t-12.5 1
q-11 -6 -8 -10t10.5 -7.5l15 -7t5.5 -8.5q13 -84 16.5 -157.5t1.5 -139.5t-7.5 -124.5t-9.5 -110.5q6 -2 -4.5 -4t-24.5 -16q-10 -9 -9 -12.5t9 -3.5q7 0 18 3.5t22 9.5q7 6 33.5 9t58 2t61.5 -5.5t45 -11.5q21 -10 28 -9.5t6 6t-6.5 11.5t-9.5 8q-18 7 -24 12.5t-9 3.5
q-9 30 -16 70t-10.5 82.5t-2.5 84t10 74.5q13 22 25 36t27 21.5t35.5 10.5t50.5 3q54 -25 82.5 -56t39.5 -67.5t9.5 -77t-7.5 -83l-12 -86.5t-3 -87q1 -18 7.5 -40t17.5 -42t27 -35.5t35 -20.5z" />
    <glyph glyph-name="i" unicode="i" horiz-adv-x="391" 
d="M-11 -6q12 2 20.5 5.5l17.5 7.5l20 8.5t28 9.5q28 7 62 8t68.5 -1.5t66.5 -7.5t57 -9.5t41 -7t17 -0.5q-19 2 -39.5 19.5l-45.5 40.5q-12 10 -22 39.5t-16 70.5t-8.5 90t1 99t12.5 97.5t25 85.5q1 2 13 7.5t27 13.5t30 18t23 21q-46 -13 -96.5 -18t-102.5 -4t-102.5 7
t-96.5 15q5 -13 17.5 -22t26.5 -16.5l26 -14t17 -13.5q27 -80 35 -150t4 -129.5t-15.5 -108.5t-24.5 -86z" />
    <glyph glyph-name="j" unicode="j" horiz-adv-x="555" 
d="M191 -84q27 -1 50.5 3t43 10t35.5 12t28 10q52 26 88 68.5t58.5 94.5t32 111t10 118.5t-7.5 116t-22 104.5q3 2 11.5 9t19 14.5l21 14.5t17.5 9q-15 0 -41.5 -5.5l-57.5 -12.5l-60.5 -13.5t-50.5 -9.5q-51 -7 -95 -4t-86 26q3 -8 19.5 -16t36.5 -15.5t37 -16t20 -18.5
q17 -31 27 -73t13 -89.5t-1.5 -97.5t-16.5 -98.5t-30.5 -92t-43.5 -76.5q-6 -11 -22 -19t-33.5 -13t-32.5 -6t-20 2q-25 6 -40.5 27t-22.5 48.5t-5 57t12.5 52.5t30 35t47.5 5q19 -13 15 -33q-5 -24 9 -32.5t28 -4t18 21.5t-21 44q-37 22 -70 23.5t-64 -15.5
q-13 -7 -24.5 -17.5t-20.5 -22.5t-15 -24t-9 -22q-7 -28 -2 -59.5t24.5 -59.5t55 -47.5t89.5 -23.5h18z" />
    <glyph glyph-name="k" unicode="k" horiz-adv-x="665" 
d="M621 -189q-8 -4 -8.5 -4.5t3.5 2.5l11.5 9t14.5 15q19 12 19.5 24.5t-7.5 18.5t-18.5 1.5t-13.5 -26.5q-22 -23 -37 -27t-24 5t-13 27t-4 38q1 17 14.5 44.5t32 60.5l37.5 69.5t31 72t12 67.5t-20 56.5t-64.5 39t-120.5 14.5q16 5 34.5 16.5t35 26.5t28 33t13.5 36
q0 17 -4.5 33.5t-11.5 34.5q-8 19 1.5 35t37.5 26q18 6 17.5 12t-12.5 8t-31.5 -0.5t-39.5 -14t-36 -32.5t-21 -55q-5 -14 -7.5 -34.5t-7.5 -42.5t-14 -41.5t-28 -29.5q-17 -10 -41 -19t-41 -11q-7 -2 -25 -3t-36 0.5t-31.5 5.5t-11.5 10q1 8 1.5 28.5t3 46.5t9 56t19 56
t33.5 46.5t53 28.5q-16 1 -53 -4.5t-87 -10t-108 -3.5t-116 15l45 -39q18 -32 27 -79.5t12.5 -101.5t2.5 -109t-3.5 -101.5t-6.5 -79.5t-5 -42q6 2 -8 -5t-31.5 -17t-29.5 -20t-1 -15q28 13 71 17t89.5 2t89.5 -7.5t70 -10.5q-2 9 -11 16t-19.5 13l-19.5 11.5t-12 11.5
q-9 22 -13 52t-4 62q0 33 1.5 65t3.5 58q5 6 19.5 13.5t37.5 11.5q23 5 39.5 7.5t26.5 2.5q63 -5 97.5 -31t49.5 -64.5t15.5 -86t-3.5 -94.5l-8 -90t2.5 -73.5t28 -43.5t67.5 -1z" />
    <glyph glyph-name="l" unicode="l" horiz-adv-x="641" 
d="M7 -1q56 13 132 13t157.5 -5t161.5 -12t143 -8q6 13 11 35.5t9.5 47.5t9.5 49.5t10 42.5q8 29 6 39t-12 7t-26 -17t-35 -32.5l-40.5 -39t-41.5 -36.5q-38 -26 -79 -38t-76 -8t-59 23t-28 54q2 -6 -2 26.5t-5.5 92t3.5 141t25 173.5q12 1 22 4.5t19.5 9.5t20.5 16.5
t26 27.5q-42 -4 -73.5 -13t-69.5 -14t-90.5 -0.5t-136.5 27.5q-8 2 1 -10.5t23.5 -27t27.5 -23t14 2.5q4 -70 7.5 -120.5t5.5 -89.5t2 -71q0 -31 -2.5 -64t-7 -72t-11.5 -91q-6 -5 -15.5 -9.5l-26.5 -12.5q-15 -9 -6 -13t22 -9z" />
    <glyph glyph-name="m" unicode="m" horiz-adv-x="818" 
d="M60 -77q9 0 18 6t13 14q6 2 15.5 7t24.5 12t37.5 15t55.5 16q41 7 93.5 12.5t108.5 5.5t110.5 -6t98.5 -20q64 -20 104 -34.5t50 -13.5q-2 6 3.5 12t12.5 12t13 12.5t5 12.5q-6 2 -24.5 7.5t-40 10t-42.5 6.5t-32 -3q63 39 94 94.5t34.5 117.5t-18.5 124t-66 115
t-107 90.5t-141 49.5q-56 8 -113 -1q-88 -13 -157 -47t-115.5 -82.5t-69 -107t-16.5 -118.5t42 -118t107 -106q-17 -3 -42.5 -9.5t-50.5 -15t-43 -19t-18 -22.5zM471 28q4 -9 -2.5 28.5t-14.5 106.5t-13 161t3 192q1 16 11.5 23t25.5 7t33 -5.5t34 -14t28.5 -18.5t16.5 -19
q33 -80 46.5 -146.5t11.5 -122.5t-17 -103.5t-40 -88.5h-123zM254 21q-22 34 -37 87.5t-15.5 116.5t16 130.5t57.5 129.5q9 15 22 31t28 24t31.5 4t32.5 -28q13 -78 14.5 -149t-4 -133.5t-15 -115.5t-19.5 -94z" />
    <glyph glyph-name="n" unicode="n" horiz-adv-x="702" 
d="M586 -160q91 3 67 50q-20 10 -31 -13q-6 -9 -8.5 -16.5t-2.5 -10.5q-28 0 -47 8.5t-30 23t-15.5 32.5t-2.5 37q5 32 30 76l55 95t58 105.5t39.5 106.5t-1 99.5t-62.5 83.5q-13 26 -53.5 50.5t-92.5 39t-106.5 15.5t-94.5 -21q-59 -16 -125 -27t-132 -3q-14 1 -21 -1
q0 -9 4.5 -12.5t11.5 -5.5t16 -2.5t18 -3.5q15 -25 23 -64.5t10 -87t0 -98.5t-7 -99.5t-12.5 -90t-14.5 -68.5q-1 -3 -9.5 -9t-17.5 -13.5t-15 -15t-1 -14.5q19 8 50 13.5t70 6t85 -4t94 -16.5q-2 15 -21.5 30.5t-44.5 20.5q-4 53 -7.5 113.5t-4 122t4.5 120.5t17 110
q1 12 7 29.5t22 29.5q59 40 98 40.5t63.5 -26.5t35.5 -75.5t13 -106t-3 -118t-12.5 -111.5t-16 -87t-13.5 -44q-9 -15 -9 -35q0 -21 7 -41.5t18.5 -39t23.5 -30.5q9 -8 16 -15.5t17 -14t24 -11t36 -6.5z" />
    <glyph glyph-name="o" unicode="o" horiz-adv-x="705" 
d="M354 0q81 -1 146 22t110.5 64t69.5 96.5t23 119.5q-1 50 -27.5 103t-74 97t-113.5 73t-145 31q-74 1 -136.5 -23t-107.5 -66t-70 -97t-25 -116q0 -35 13.5 -72.5t37 -73t55 -66.5t68 -53t75.5 -33t78 -6h23zM331 17q-26 -5 -47 16t-37 58.5t-26 87t-12.5 102.5t3.5 105.5
t21 95t40 71t62 33.5q44 6 77.5 -15.5t56.5 -61t35.5 -92.5t14.5 -108.5t-7.5 -109t-30 -94.5t-52.5 -65t-75 -20z" />
    <glyph glyph-name="p" unicode="p" horiz-adv-x="632" 
d="M303 291q34 -17 73.5 -21.5t78 2t73 22t58.5 40t35 57t2 70.5q-2 34 -20 59t-56 57q-11 9 -49 18.5t-87.5 15t-101 4.5t-87.5 -12q-59 -17 -101.5 -23.5t-70 -7t-41.5 3t-16.5 6.5t6 2t25.5 -9l9 -10.5t6.5 -5t9 -2t17.5 -1.5q25 -66 35 -138t9.5 -140t-11.5 -128.5
t-28 -105.5q-10 -1 -23.5 -9t-26 -18t-22 -19.5t-12.5 -14.5q22 1 58.5 13.5t87 20t115.5 1.5t146 -42q-5 9 -6 14t-6.5 9.5t-20 11l-45.5 20.5q-11 3 -18.5 19.5t-13 41t-8 54t-2.5 57.5q0 29 2.5 53.5t7.5 39.5zM302 319q-20 5 -25 5q-4 0 -2 -1t6.5 -0.5t2.5 6.5
q-8 18 -8.5 54.5t1.5 73.5t6.5 67t7.5 35q13 25 36.5 35.5t48.5 7t47.5 -22t34.5 -51.5q6 -18 8.5 -43.5t1 -53t-7 -53t-16.5 -43.5q-13 -21 -27.5 -29t-29.5 -9t-29.5 2t-27.5 3z" />
    <glyph glyph-name="q" unicode="q" horiz-adv-x="804" 
d="M497 4q5 0 19 1t30 3.5t30.5 5t20.5 4.5q36 10 58.5 5.5t40.5 -14.5t34.5 -21t40.5 -12q20 3 34.5 10t18 12t-6.5 6t-40 -9q-15 1 -22 12.5t-11 25.5t-7 28t-10 21q-30 15 -52.5 9.5t-43.5 -18.5l-45 -27t-58 -15q42 12 78.5 38t64 61t45 77t21.5 87q0 51 -27 105
t-79 98.5t-126.5 73.5t-169.5 31q-88 -12 -150 -43.5t-102 -73.5t-60 -90.5t-23 -93.5q4 -51 28 -108t71 -103.5t121 -74.5t179 -20q16 0 42.5 2t55.5 7zM371 27q-49 0 -82.5 26t-53.5 68t-28 94.5t-5 107t15.5 105t33.5 88t49 56.5t62 11q48 -12 82.5 -43t55.5 -74
t29.5 -93t6.5 -100.5t-14.5 -97t-33.5 -81t-50.5 -53.5t-66.5 -14z" />
    <glyph glyph-name="r" unicode="r" horiz-adv-x="610" 
d="M557 -174q-11 18 -21.5 15.5t-24.5 -10.5q-17 -3 -26.5 10t-12 32t0.5 39t11 31l25 39t33 56.5t33 67.5t26 72.5t10.5 71t-13.5 63.5q-2 5 -7 15.5t-18.5 24.5t-39 29t-69.5 29q28 8 50 17.5t36 27.5q13 21 15 43t-4 40.5t-18.5 32.5t-27.5 19q-58 22 -169 10
q-60 -14 -106 -21.5t-87 -7.5q-40 0 -78.5 8.5t-83.5 26.5q-2 -1 -1 -8t5 -15.5t11 -16t18 -8.5q15 -20 27 -60t19.5 -90.5t9 -107t-3.5 -109t-18 -97t-35 -71.5q-8 -10 -18 -20.5t-16 -28.5q4 0 7.5 0.5t8.5 3l13.5 7l24.5 13.5q24 7 41 10.5t29.5 5t22 2t19.5 0.5
q23 0 65.5 -8t94.5 -31q4 11 -0.5 19.5t-15 17t-24 17.5t-25.5 21q6 -2 0.5 12.5t-12 48.5t-10.5 90t4 138q2 19 18 29.5t39 13.5t49.5 0t50 -12t40.5 -22.5t21 -30.5q5 -26 5.5 -59t-3 -68t-8.5 -70t-10.5 -64.5t-10 -51.5t-5.5 -31q-6 -48 1 -77t17.5 -45.5t21 -22
l12.5 -6.5q-1 -2 10 -6.5t25 -8t28 -4.5t19 4zM229 398q-8 65 11.5 107.5t51 64t67.5 22.5t61 -16.5t31.5 -53.5t-21.5 -89q-27 -16 -53 -20t-50 -5.5t-47 -5t-45 -16.5z" />
    <glyph glyph-name="s" unicode="s" horiz-adv-x="603" 
d="M187 61q-50 6 -77 19.5t-29 21.5q7 -1 11.5 14.5t5.5 32.5t-0.5 29t-4.5 5q-14 -30 -31.5 -54t-34.5 -41.5t-31.5 -28t-20.5 -12.5q23 2 33.5 4.5t17 5.5l13 6t21.5 8l53 -25t47.5 -20t55 -16t75.5 -11q35 -3 69.5 -4t69 4.5t68.5 19.5t67 41q19 16 27.5 39t7.5 48
t-10 50t-24 45q-24 32 -64.5 55.5t-85 42t-88 34t-74.5 32t-44 35.5t4 44q28 42 65.5 55.5t76 7.5t72.5 -25t54 -41q-1 8 -1 5v-10t1 -19.5t3 -21t5.5 -15t8.5 -1.5q-2 34 5.5 52t17.5 27.5t20.5 14t14.5 12.5q5 13 2.5 18t-8 6t-10 -0.5t-3.5 -1.5q-4 0 -11 -3.5t-14 -8.5
t-13.5 -12t-9.5 -13q-13 18 -42.5 37t-69 33t-85 21.5t-91 4t-87 -20.5t-73.5 -52t-35 -70.5t9.5 -66.5t35.5 -53.5t44 -32.5q31 -14 67.5 -28.5t72 -30.5t67 -33t54 -36t32 -40t0.5 -44q-23 -31 -73 -42.5t-118 2.5z" />
    <glyph glyph-name="t" unicode="t" horiz-adv-x="731" 
d="M168 -7q91 21 146.5 27t94.5 3t70.5 -10.5t73.5 -12.5q5 -3 -1 3t-18.5 15.5t-29.5 19.5t-33 15q-17 40 -25.5 99t-9.5 122t4 123.5t15 104.5q5 20 20 31.5t35.5 12t44 -10.5t44.5 -35l75 -85t44 -45t12 3.5t-21 60.5q-11 26 -17 48.5l-11.5 43l-11 39.5t-15.5 39
q-105 -14 -200 -16.5t-173.5 0.5t-136.5 8.5t-87 7.5q-5 -51 -17 -95.5t-22 -73.5q-16 -39 -18 -56t5 -18t21.5 11.5t31.5 32.5t35.5 45t32.5 49q14 15 31 27.5t33 16t30 -4t22 -33.5q16 -57 22 -120.5t5 -125t-8 -115t-16 -89.5q-3 -2 -12.5 -11t-26.5 -19z" />
    <glyph glyph-name="u" unicode="u" horiz-adv-x="655" 
d="M416 66q1 -17 8.5 -29.5t19.5 -21t27.5 -12.5t32.5 -3q55 -17 88.5 -4.5t62.5 54.5q9 12 7 25.5t-9 20t-15.5 4t-12.5 -21.5q5 -13 5.5 -21t0.5 -13q-14 -13 -30.5 -17.5t-30.5 -2t-24 11.5t-10 22q-8 57 -8.5 117.5t5 122t15.5 122t23 116.5q2 15 11.5 24.5t21 17
t22 13.5t15.5 14q-3 0 -11 -2l-16.5 -4t-15.5 -4l-7 -2q-62 -9 -139 -9q-22 0 -45.5 2t-44.5 5t-38.5 6.5t-26.5 7.5q4 -12 17 -23t47 -21q12 -50 17 -101.5t5 -101.5q0 -49 -4 -95t-10 -84.5t-13.5 -67t-13.5 -43.5q-12 -13 -18 -21.5t-14 -13t-22 -5t-42 2.5
q-37 22 -54.5 58.5t-22 83t0.5 101t14 112.5q4 22 8 41.5t6 38.5t1.5 38.5t-4.5 41.5q-1 11 -16.5 25.5t-38.5 28.5q-17 10 -34 12t-31 -1.5t-23 -11.5t-9 -18q0 2 -4 -5t-6.5 -17.5t-1 -22t11.5 -17.5q12 -6 19.5 -5.5t11.5 4.5t6.5 9.5t4.5 9.5q-5 14 -12.5 21t-13.5 5
q10 16 25 21t29.5 1.5t25 -15.5t12.5 -30q4 -12 0.5 -24t-11 -24.5t-17 -25.5t-17.5 -26q-23 -38 -50 -77.5t-43.5 -83t-16.5 -92.5t32 -106q16 -24 55 -47.5t85.5 -36.5t94 -10.5t82.5 30.5q12 10 18.5 16.5t11.5 13l11 15t18 23.5z" />
    <glyph glyph-name="v" unicode="v" horiz-adv-x="629" 
d="M78 -16q1 -2 9.5 0.5l19.5 6t21.5 6.5t16.5 2q6 4 20.5 7t32.5 5t38 3t37 1q-5 0 14.5 -0.5t55 -3.5t84 -8.5t102.5 -14.5l-25 24t-10.5 11t-1.5 2.5l1 -0.5q-10 7 -22.5 8t-14.5 4q-2 18 1 56t10.5 85.5t19 101.5t27.5 104.5t37 94.5t46 71q10 11 17 14.5t12 5.5t9.5 7
t9.5 19q-11 4 -10 5.5t1 0.5t-7 -6t-33 -14q-22 -7 -50 -9t-57.5 -0.5t-58.5 5t-51 6.5q-9 -2 -17.5 0.5t-14.5 5.5t-10 3t-4 -7q14 -17 19.5 -21t7 -4.5t0.5 -0.5t0 -8q6 -74 -2 -145t-23 -134t-33 -116l-31 -93q-1 2 -2.5 3t-3.5 3q-25 36 -46 89t-36 114t-23 124.5
t-8 120.5q-5 5 4 10l21.5 12t24 17t10.5 25q-11 1 -25.5 -6t-23.5 -8q-46 -9 -78.5 -6.5t-58.5 6.5q-11 1 -19.5 7.5t-18.5 6.5q-1 -19 6.5 -28t17 -14l19 -10t12.5 -15l49 -163.5l33.5 -120t21 -83.5t11.5 -54.5t5.5 -33l2.5 -19.5q-7 -3 -21 -11t-37 -20z" />
    <glyph glyph-name="w" unicode="w" horiz-adv-x="906" 
d="M112 -12q9 1 17.5 4.5t16 7t15.5 5.5t17 1q24 9 46 9t43 -4t42 -9.5t44 -6.5q2 10 -14 20.5t-39 17.5q10 40 22 82.5t27.5 82t35.5 73t47 57.5q1 -1 8 -0.5t8 0.5q5 -12 14.5 -39.5l22 -65l27 -83.5l29.5 -96q-9 -5 -20 -10.5t-20.5 -11.5t-16 -12t-4.5 -12q1 -2 10.5 0
t21 5t22 6.5t12.5 3.5q26 2 58 2t67.5 -2.5t72.5 -7t73 -10.5q-2 4 -11.5 12t-21 15.5l-21.5 13.5t-12 6q-1 94 28 217t77 284q-1 0 5 3.5l13.5 7.5l14 7.5l6.5 3.5q0 -3 5.5 1.5t11.5 11t10 12.5t1 8q-7 -12 -28.5 -18.5t-49.5 -9.5t-59 -3q-30 0 -55 1t-40.5 2t-13.5 1
q-15 3 -30.5 8.5t-27.5 6.5q11 -19 18 -26.5t11.5 -9.5t7 -3t5.5 -7q4 -63 -2 -128.5t-16.5 -122.5t-22.5 -101t-19 -63q-12 8 -25.5 31t-26.5 55t-25.5 69t-23 72l-19 65.5l-13.5 49.5q-2 7 -7.5 9t-12 1.5t-12 -3t-5.5 -3.5q-32 -63 -57 -120.5l-44.5 -103.5t-35 -76.5
t-30.5 -39.5l-22 100t-20.5 106.5t-11 106.5t6.5 100q4 1 12.5 5.5t19 11.5t20.5 14.5t16 13.5q4 4 -6.5 2.5t-25 -4.5t-28.5 -7t-18 -4q-33 -2 -61.5 -3t-55.5 0t-54.5 5.5t-59.5 13.5q19 -23 30.5 -30t20.5 -14q22 -45 43 -106.5t38 -129.5t28 -137.5t14 -130.5
q3 -12 -4 -19t-16.5 -12.5t-16 -10.5t-1.5 -14z" />
    <glyph glyph-name="x" unicode="x" horiz-adv-x="667" 
d="M-14 -2q18 -2 42 0.5t49 6t49.5 6t43.5 -0.5q2 6 20.5 2t42.5 -10t47.5 -9.5t36.5 2.5q-10 1 -17.5 6t-14 12l-12.5 13.5t-13 9.5q-1 16 7 37t21 43t28 43t29 36.5t24.5 24t13.5 4.5q23 -26 46.5 -50t43.5 -48.5t35 -51.5t22 -59q-10 -1 -15 -2.5t-9 -4.5l-9 -6.5
l-14 -9.5q-1 -8 6 -7t17 4t19.5 6.5t13.5 1.5q25 11 43 11q19 0 47 -5q9 -1 19.5 -8t18.5 -3q-16 11 -32.5 19.5t-32.5 26.5l-128 147t-59 75q-3 6 10.5 30t35 56.5l47 68.5l47.5 66.5l36.5 50t12.5 18.5q12 5 20 10t15 10t15 10t20 11q-5 -1 -22 -2.5t-61 -6.5
q-17 -2 -44.5 -1t-57 3t-56 4.5t-39.5 2.5q-1 -6 6 -10.5t16.5 -8t18.5 -5.5t13 -3q-8 -28 -23 -53.5t-33 -49.5t-38 -47l-39 -45q1 -2 -15.5 12.5t-41.5 41.5t-52.5 65t-48.5 83q18 7 27 13t12 9.5t1.5 4.5t-3.5 0q-26 -8 -53 -14t-52 -7q-20 2 -40 5.5t-37 5.5
q-6 -4 0 -10q6 -9 25.5 -13t42.5 -4q2 0 13 -8t34.5 -33t61.5 -70t93 -120q-16 -26 -43.5 -65.5l-58.5 -81.5l-62.5 -81t-54.5 -64q-2 -2 -5 -1.5t-11.5 -2.5t-22.5 -11t-38 -25z" />
    <glyph glyph-name="y" unicode="y" horiz-adv-x="649" 
d="M16 602q4 -17 18 -29t28 -21t22.5 -16.5t1.5 -16.5q-36 -54 -46.5 -122t-1 -135t37 -126.5t67.5 -96t90 -43.5t105 30q21 14 34.5 26.5t22.5 23t15 19t12 14.5q-5 -37 -13.5 -71t-24.5 -68t-42 -70t-66 -76q-12 -12 -31.5 -27.5t-42.5 -31t-47 -29.5t-44.5 -21.5
t-35 -6.5t-17.5 14q-8 29 -20.5 36t-22.5 0t-12 -22.5t13 -31.5q26 -16 72.5 -10.5t103 28.5t118.5 62.5t118 90.5q49 44 77 85t43 84.5t21 91.5t10 107.5t9.5 133.5t20.5 167q-4 -2 10 9t28.5 24.5t19 23t-17.5 5.5q-14 -11 -41 -19t-58.5 -12t-62 -5t-49.5 1
q-17 -5 -32.5 -3.5t-30 5t-28 6t-25.5 1.5l77 -58q3 -28 5.5 -62.5t4 -71t1.5 -73.5q0 -36 -2 -68t-7 -58t-14 -42q-14 -54 -36 -77t-47 -22.5t-51.5 22.5t-51 57.5t-44.5 81.5t-32 96t-14 101t9 95q3 12 18 25.5t33 25t33.5 20t18.5 12.5q1 1 -17 -1.5t-44 -4.5t-53 -1
t-43 9z" />
    <glyph glyph-name="z" unicode="z" horiz-adv-x="640" 
d="M27 -13q70 57 148.5 72.5t154.5 5t142.5 -38.5t111.5 -57q4 -3 8 13.5l10.5 42t16.5 55t27 52.5q-7 0 -17 -6t-22 -16.5l-25 -23l-26 -25.5q-13 8 -37.5 15t-54 12t-59 8t-52 3.5t-34.5 -1.5t-5 -7q16 61 50 126t77 127.5t91 120t94 103.5q5 0 2.5 3t-7 7t-8.5 7t-3 5
q-41 15 -89.5 21t-99.5 4.5t-103 -9.5t-100 -21q-16 -5 -34.5 -0.5t-38 10.5l-38.5 11.5t-36 2.5q-2 0 -8.5 -11.5t-13.5 -26t-12 -28t-5 -18.5q-15 -39 -20.5 -67.5t-7 -47.5t0.5 -29.5t2 -12.5q42 42 85.5 79.5t88.5 66.5t91.5 46t95.5 17q-17 -84 -58 -154.5t-92 -132.5
t-105.5 -119t-97.5 -115q-3 1 -6 -8t-3.5 -20.5t3.5 -22t15 -12.5z" />
  </font>
</defs>
</svg>
